<?xml version="1.0" encoding="UTF-8" standalone="no"?>
<!-- Created with Inkscape (http://www.inkscape.org/) -->

<svg
   width="56.161377"
   height="52.40387"
   viewBox="0 0 14.859364 13.86519"
   version="1.1"
   id="svg1"
   inkscape:version="1.4.2 (ebf0e940, 2025-05-08)"
   sodipodi:docname="mvp-wireframe.svg"
   xml:space="preserve"
   xmlns:inkscape="http://www.inkscape.org/namespaces/inkscape"
   xmlns:sodipodi="http://sodipodi.sourceforge.net/DTD/sodipodi-0.dtd"
   xmlns="http://www.w3.org/2000/svg"
   xmlns:svg="http://www.w3.org/2000/svg"><sodipodi:namedview
     id="namedview1"
     pagecolor="#ffffff"
     bordercolor="#000000"
     borderopacity="0.25"
     inkscape:showpageshadow="2"
     inkscape:pageopacity="0.0"
     inkscape:pagecheckerboard="false"
     inkscape:deskcolor="#d1d1d1"
     inkscape:document-units="px"
     inkscape:zoom="1.1075252"
     inkscape:cx="2042.3914"
     inkscape:cy="753.03026"
     inkscape:window-width="3840"
     inkscape:window-height="2107"
     inkscape:window-x="1792"
     inkscape:window-y="25"
     inkscape:window-maximized="0"
     inkscape:current-layer="g69"><inkscape:page
       x="4.1955172e-15"
       y="0"
       width="14.859364"
       height="13.86519"
       id="page2"
       margin="0"
       bleed="0" /></sodipodi:namedview><defs
     id="defs1" /><g
     inkscape:label="Layer 1"
     inkscape:groupmode="layer"
     id="layer1"
     transform="translate(-490.84113,-227.08173)"><g
       style="fill:none;fill-opacity:1;stroke:#b5a2f1;stroke-width:1.66952;stroke-dasharray:none;stroke-opacity:1"
       id="g87"
       transform="matrix(0.89368455,-0.00609734,0.00479329,0.70254967,487.93059,225.6641)"><path
         style="baseline-shift:baseline;display:inline;overflow:visible;opacity:1;vector-effect:none;fill:#b5a2f1;stroke:none;stroke-linecap:round;stroke-linejoin:round;enable-background:accumulate;stop-color:#000000;stop-opacity:1"
         d="m 6.140625,2.1933594 c -0.3444333,0.061452 -0.6001109,0.3124033 -0.7050781,0.5800781 -0.00283,0.00722 -0.00634,0.01651 -0.00977,0.025391 C 5.0353607,3.8097914 4.9813358,4.9173992 5.2324219,5.96875 4.5445182,6.923501 4.1499692,8.0727784 4.1660156,9.2734375 c 0.00134,2.3817025 0.7132957,4.0347125 1.8378906,5.0585935 0.8479053,0.771971 1.8608452,1.108012 2.8632813,1.324219 -0.1169279,0.310131 -0.350957,0.569946 -0.375,0.90625 a 0.83484349,0.83484349 0 0 0 -0.00195,0.04492 l -0.033203,1.818359 a 0.83484349,0.83484349 0 0 0 0,0.01563 V 21 A 0.83476001,0.83476001 0 0 0 9.2910156,21.833984 0.83476001,0.83476001 0 0 0 10.126953,21 v -2.550781 l 0.0332,-1.769532 c 0.02824,-0.38683 0.178479,-0.749168 0.416016,-1.019531 a 0.83484349,0.83484349 0 0 0 0.002,-0.002 c 0.0012,-0.0013 0.0046,-0.0042 0.0078,-0.0078 v -0.002 C 11.017959,15.16437 10.701162,14.301718 10.052734,14.220703 8.9204084,14.079369 7.8716581,13.773891 7.1289062,13.097656 6.3861544,12.421422 5.8359375,11.33748 5.8359375,9.2675781 a 0.83484349,0.83484349 0 0 0 0,-0.011719 C 5.8228629,8.3478554 6.1200868,7.4695512 6.6582031,6.7910156 6.677176,6.7671007 6.6955852,6.7437666 6.7148437,6.7207031 6.926278,6.4673765 6.997242,6.1220878 6.9003906,5.8066406 a 0.83484349,0.83484349 0 0 0 -0.00195,-0.00195 c -1.7e-4,-5.491e-4 8.6e-4,-0.00304 0,-0.00586 C 6.8852776,5.7556416 6.8728616,5.7134466 6.8613316,5.6699244 6.7096495,5.0971518 6.8265886,4.5049179 6.9550816,3.92969 7.3001194,4.0318758 7.812535,4.2445758 8.5585973,4.7597681 c 0.047883,0.03306 0.096751,0.067968 0.1464843,0.1035156 0.2451722,0.175214 0.5588712,0.2286771 0.8476563,0.1464844 l 0.00391,-0.00195 v 0.00195 c 0.081657,-0.023212 0.1619684,-0.045526 0.2441407,-0.066406 1.4463224,-0.367376 2.9521484,-0.3673741 4.3984374,0 0.07768,0.019716 0.154621,0.040528 0.232422,0.0625 a 0.83484349,0.83484349 0 0 0 0.0039,0 c 0.296158,0.083921 0.617635,0.028883 0.869141,-0.1503907 0.04633,-0.033056 0.09231,-0.065059 0.136718,-0.095703 0.744494,-0.5142381 1.253924,-0.7276566 1.597656,-0.8300781 0.131118,0.5754061 0.25123,1.1664765 0.09961,1.7402344 -0.01155,0.043717 -0.02366,0.088647 -0.03711,0.1328125 -0.09736,0.3177343 -0.0271,0.6634956 0.183594,0.9179687 4.31e-4,5.207e-4 -4.32e-4,0.00143 0,0.00195 a 0.83484349,0.83484349 0 0 0 0.0039,0.00391 0.83484349,0.83484349 0 0 0 0.01563,0.019531 c 0.01203,0.014676 0.02376,0.028559 0.03516,0.042969 a 0.83484349,0.83484349 0 0 0 0.002,0.00195 c 0.538137,0.6785315 0.83534,1.5568398 0.822265,2.4648438 a 0.83484349,0.83484349 0 0 0 0,0.011719 c 0,2.0817923 -0.551913,3.1620873 -1.296875,3.8300783 -0.744099,0.667218 -1.797525,0.96082 -2.933593,1.087891 -0.643944,0.06851 -0.974626,0.940874 -0.542969,1.417969 0.007,0.0078 0.01116,0.01327 0.0098,0.01172 0.169234,0.188859 0.305028,0.415465 0.392578,0.667969 0.09172,0.264578 0.129101,0.55014 0.109375,0.833984 a 0.83484349,0.83484349 0 0 0 -0.002,0.05859 V 21 A 0.83476001,0.83476001 0 0 0 14.734375,21.833984 0.83476001,0.83476001 0 0 0 15.570313,21 v -3.824219 l -0.002,0.05664 c 0.03527,-0.507556 -0.03294,-1.016471 -0.199218,-1.496094 -0.01833,-0.05287 -0.06335,-0.09073 -0.08399,-0.142578 0.946362,-0.213007 1.893642,-0.535065 2.695313,-1.253906 1.134253,-1.017061 1.852175,-2.672309 1.853515,-5.0664065 C 19.850031,8.0727784 19.455514,6.9235055 18.767578,5.96875 19.019556,4.912304 18.960785,3.8006716 18.5625,2.7871094 a 0.83484349,0.83484349 0 0 0 0,-0.00391 c 0.0023,0.00577 -1.64e-4,0.00259 -0.0059,-0.011719 -0.105862,-0.266098 -0.359779,-0.5168368 -0.705079,-0.578125 -0.459937,-0.08157 -1.545056,0.00126 -3.238281,1.1328125 -0.0014,-3.53e-4 -0.0025,-0.0016 -0.0039,-0.00195 -1.714511,-0.4355059 -3.504213,-0.4355041 -5.21875,0 -0.00199,5.053e-4 -0.00387,0.00145 -0.00586,0.00195 C 7.6877856,2.1930913 6.5981972,2.111771 6.140625,2.1933594 Z"
         id="path1" /><path
         style="baseline-shift:baseline;display:inline;overflow:visible;opacity:1;vector-effect:none;fill:#b5a2f1;stroke:none;stroke-linecap:round;stroke-linejoin:round;enable-background:accumulate;stop-color:#000000;stop-opacity:1"
         d="m 4.1171875,16.173828 a 0.83476001,0.83476001 0 0 0 -0.9433594,0.708984 0.83476001,0.83476001 0 0 0 0.7089844,0.94336 c 0.2432111,0.03446 0.47551,0.123513 0.6796875,0.261719 0.204207,0.138296 0.3746362,0.322758 0.4980469,0.537109 l -0.00781,-0.01563 c 0.2113223,0.384489 0.4953085,0.723987 0.8378906,0.998047 0.3424459,0.273951 0.7366644,0.478292 1.1582031,0.599609 0.4215321,0.121453 0.8631853,0.157656 1.2988282,0.107422 0.4350542,-0.05028 0.85594,-0.186808 1.2382812,-0.400391 A 0.83476001,0.83476001 0 0 0 9.9082031,18.779297 0.83476001,0.83476001 0 0 0 8.7714844,18.457031 C 8.5808116,18.563544 8.3726937,18.631358 8.15625,18.65625 7.9397329,18.681216 7.7192136,18.661909 7.5097656,18.601562 7.3003044,18.54128 7.1044079,18.441336 6.9335937,18.304687 6.7629159,18.168148 6.6213227,17.998952 6.515625,17.806641 a 0.83484349,0.83484349 0 0 0 -0.00781,-0.01563 C 6.2581432,17.357367 5.9119399,16.987335 5.4980469,16.707031 5.0841044,16.426837 4.6122764,16.243971 4.1171875,16.173828 Z"
         id="path2" /></g></g></svg>
