<?xml version="1.0" encoding="UTF-8" standalone="no"?>
<!-- Created with Inkscape (http://www.inkscape.org/) -->

<svg
   width="511.98334"
   height="205.67853"
   viewBox="0 0 135.46226 54.419108"
   version="1.1"
   id="svg1"
   inkscape:version="1.4.2 (ebf0e940, 2025-05-08)"
   sodipodi:docname="mvp-wireframe.svg"
   xmlns:inkscape="http://www.inkscape.org/namespaces/inkscape"
   xmlns:sodipodi="http://sodipodi.sourceforge.net/DTD/sodipodi-0.dtd"
   xmlns="http://www.w3.org/2000/svg"
   xmlns:svg="http://www.w3.org/2000/svg">
  <sodipodi:namedview
     id="namedview1"
     pagecolor="#ffffff"
     bordercolor="#000000"
     borderopacity="0.25"
     inkscape:showpageshadow="2"
     inkscape:pageopacity="0.0"
     inkscape:pagecheckerboard="false"
     inkscape:deskcolor="#d1d1d1"
     inkscape:document-units="px"
     inkscape:zoom="1.1075252"
     inkscape:cx="2042.3914"
     inkscape:cy="753.03026"
     inkscape:window-width="3840"
     inkscape:window-height="2107"
     inkscape:window-x="1792"
     inkscape:window-y="25"
     inkscape:window-maximized="0"
     inkscape:current-layer="g69">
    <inkscape:page
       x="-2.2846159e-13"
       y="0"
       width="135.46227"
       height="54.419109"
       id="page2"
       margin="0"
       bleed="0" />
  </sodipodi:namedview>
  <defs
     id="defs1" />
  <g
     inkscape:label="Layer 1"
     inkscape:groupmode="layer"
     id="layer1"
     transform="translate(-457.06357,-276.40658)">
    <g
       id="g69"
       inkscape:export-filename="../../public/logo.svg"
       inkscape:export-xdpi="96"
       inkscape:export-ydpi="96"
       transform="translate(10.750319,144.77097)">
      <g
         id="g71"
         transform="matrix(0.99456069,0,0,1,2.4303464,0)"
         style="stroke-width:1.00273"
         inkscape:export-filename="logo-wide-aspect.svg"
         inkscape:export-xdpi="96"
         inkscape:export-ydpi="96">
        <g
           id="path51"
           style="opacity:1">
          <path
             style="font-variation-settings:'opsz' 96;baseline-shift:baseline;display:inline;overflow:visible;vector-effect:none;fill:#182332;stroke-miterlimit:0;enable-background:accumulate;stop-color:#000000;stop-opacity:1"
             d="m 446.81118,132.63728 h 135.20207 v 52.91667 H 446.81118 Z"
             id="path72" />
          <path
             style="font-variation-settings:'opsz' 96;baseline-shift:baseline;display:inline;overflow:visible;vector-effect:none;fill:#182332;stroke-miterlimit:0;enable-background:accumulate;stop-color:#000000;stop-opacity:1"
             d="m 446.81055,132.13672 -0.5,0.5 v 52.91797 l 0.5,0.5 h 135.20312 l 0.5,-0.5 v -52.91797 l -0.5,-0.5 z m 0.50195,1.00195 h 134.19922 v 51.91406 H 447.3125 Z"
             id="path73" />
        </g>
        <g
           id="g70"
           transform="matrix(0.91540829,0,0,0.91540829,117.13177,-1.5485872)"
           style="stroke-width:1.09539">
          <path
             style="font-variation-settings:'opsz' 96;baseline-shift:baseline;display:inline;overflow:visible;vector-effect:none;fill:#4f90d6;stroke-width:1.62445;stroke-miterlimit:0;enable-background:accumulate;stop-color:#000000"
             d="m 494.62586,201.46329 -33.96469,-0.20601 -10.31101,-34.33636 27.59215,-21.01503 27.36389,21.34836 z"
             id="path53" />
          <path
             style="font-variation-settings:'opsz' 96;baseline-shift:baseline;display:inline;overflow:visible;vector-effect:none;fill:#a8c8eb;stroke-width:1.62445;stroke-miterlimit:0;enable-background:accumulate;stop-color:#000000"
             d="m 477.66151,145.49157 -27.5912,21.01457 -0.17752,0.56945 10.31,34.33694 0.4558,0.3545 33.9644,0.20667 0.45857,-0.35017 10.6811,-34.20951 -0.17208,-0.57067 -27.36314,-21.34868 z m 0.27746,1.04428 26.80105,20.91012 -10.4597,33.50546 -33.26748,-0.20172 -10.09879,-33.63037 z"
             id="path54" />
        </g>
        <g
           id="g63"
           transform="matrix(-0.34918112,0.90169706,-1.0628484,-0.29755198,960.30688,-190.384)"
           style="fill:#b5a2f1;fill-opacity:1;stroke:#b5a2f1;stroke-width:0.432454;stroke-dasharray:none;stroke-opacity:1">
          <g
             id="g59"
             transform="translate(17.10336,25.473089)"
             style="fill:#b5a2f1;fill-opacity:1;stroke:#b5a2f1;stroke-width:0.432454;stroke-dasharray:none;stroke-opacity:1">
            <g
               id="path55"
               style="opacity:1">
              <path
                 style="font-variation-settings:'opsz' 96;baseline-shift:baseline;display:inline;overflow:visible;vector-effect:none;stroke:none;stroke-miterlimit:0;enable-background:accumulate;stop-color:#000000;stop-opacity:1"
                 d="m 462.82422,212.98633 -0.28125,0.86523 9.98828,3.24219 6.41602,8.64844 0.74414,10.16406 -25.48243,3.23242 -0.39648,0.4668 0.13086,4.33984 0.47266,0.43946 28.52148,-1.04102 5.3418,9.73633 -8.18555,10.3789 -10.9375,-0.38671 -18.23242,-1.5918 -0.49414,0.44922 -0.0742,6.08593 0.41992,0.45899 23.44727,1.81836 0.0703,-0.90625 -23.02149,-1.78711 0.0625,-5.16992 17.75586,1.55078 0.0234,0.002 11.17774,0.39453 0.37304,-0.17383 8.51563,-10.79492 0.041,-0.50195 -5.62109,-10.24609 -0.41602,-0.23633 -28.34375,1.03515 -0.10547,-3.46875 25.49805,-3.23632 0.39649,-0.48438 -0.78516,-10.72656 -0.0879,-0.23633 -6.58008,-8.87109 -0.22461,-0.16211 z"
                 id="path74" />
              <path
                 style="font-variation-settings:'opsz' 96;baseline-shift:baseline;display:inline;overflow:visible;vector-effect:none;stroke:none;stroke-miterlimit:0;enable-background:accumulate;stop-color:#000000;stop-opacity:1"
                 d="m 462.89062,212.78125 -0.27148,0.13867 -0.28125,0.86524 0.13867,0.27148 9.92188,3.2207 6.33789,8.54297 0.72461,9.89649 -25.2793,3.20703 -0.13672,0.0742 -0.39648,0.46679 -0.0527,0.14649 0.13086,4.33984 0.0703,0.15235 0.47266,0.43945 0.1543,0.0586 28.38867,-1.03711 5.20898,9.49414 -8.02929,10.17969 -10.82227,-0.38281 -18.22656,-1.58985 -0.16406,0.0547 -0.49414,0.44922 -0.0723,0.1582 -0.0742,6.08594 0.0566,0.14844 0.41992,0.45898 0.14258,0.0684 23.44727,1.81836 0.23242,-0.19726 0.0703,-0.90625 -0.19726,-0.23243 -22.82032,-1.77148 0.0586,-4.73633 17.52148,1.53125 h 0.002 l 0.0234,0.002 0.01,0.002 11.17773,0.39453 0.0996,-0.0215 0.37305,-0.17383 0.0781,-0.0605 8.51563,-10.79492 0.0449,-0.11719 0.041,-0.50195 -0.0254,-0.1211 -5.6211,-10.24609 -0.082,-0.084 -0.41601,-0.23633 -0.11524,-0.0293 -28.125,1.02734 -0.0937,-3.05468 25.30274,-3.21094 0.14062,-0.0781 0.39648,-0.48437 0.0469,-0.15234 -0.78516,-10.72657 -0.0117,-0.0605 -0.0879,-0.23633 -0.0293,-0.0527 -6.58008,-8.87109 -0.0469,-0.0469 -0.22461,-0.16211 -0.0605,-0.0293 z m 0.0723,0.47656 9.88867,3.21094 0.16992,0.12305 6.54297,8.81836 0.0664,0.17968 0.77539,10.60938 -0.28711,0.35156 -25.41211,3.22461 -0.18945,0.2207 0.10547,3.46875 0.22461,0.21094 28.2832,-1.0332 0.30859,0.17578 5.56055,10.13476 -0.0312,0.37305 -8.44336,10.70313 -0.2793,0.1289 -11.11914,-0.39258 h -0.0176 l -17.75585,-1.55078 -0.23633,0.21289 -0.0625,5.16993 0.19922,0.21679 22.80664,1.77149 -0.0371,0.47461 -23.14649,-1.79493 -0.30468,-0.33203 0.0723,-5.90625 0.35547,-0.32226 18.13672,1.58203 0.0117,0.002 10.9375,0.38672 0.17773,-0.082 8.18555,-10.37891 0.0195,-0.23828 -5.3418,-9.73633 -0.19726,-0.11328 -28.43164,1.03907 -0.3418,-0.31836 -0.125,-4.16602 0.28906,-0.33984 25.39844,-3.22071 0.1875,-0.23047 -0.74414,-10.16406 -0.041,-0.11328 -6.41601,-8.64844 -0.10742,-0.0762 -9.78321,-3.17578 z"
                 id="path75" />
            </g>
            <g
               id="path56"
               style="opacity:1">
              <path
                 style="font-variation-settings:'opsz' 96;baseline-shift:baseline;display:inline;overflow:visible;vector-effect:none;stroke:none;stroke-miterlimit:0;enable-background:accumulate;stop-color:#000000;stop-opacity:1"
                 d="m 473.91211,269.15625 -0.66797,0.61719 5.86719,6.33398 -2.50586,5.51172 -0.041,0.16016 -0.24609,3.85156 -1.10352,-3.31055 -0.041,-0.0898 -5.15039,-8.56836 -0.7793,0.46875 5.12305,8.52539 1.82617,5.47656 0.88476,-0.11523 0.39063,-6.09766 2.5957,-5.71094 -0.0801,-0.49804 z"
                 id="path76" />
              <path
                 style="font-variation-settings:'opsz' 96;baseline-shift:baseline;display:inline;overflow:visible;vector-effect:none;stroke:none;stroke-miterlimit:0;enable-background:accumulate;stop-color:#000000;stop-opacity:1"
                 d="m 473.76562,268.99805 -0.66796,0.61718 -0.0117,0.30469 5.76953,6.22852 -2.44727,5.38086 -0.0117,0.0371 -0.041,0.16015 -0.006,0.0391 -0.17578,2.74805 -0.75391,-2.26172 -0.008,-0.0215 -0.041,-0.0899 -0.0117,-0.0215 -5.15039,-8.56836 -0.29687,-0.0742 -0.7793,0.46875 -0.0742,0.29688 5.11133,8.50586 1.81836,5.45312 0.23242,0.14649 0.88477,-0.11524 0.1875,-0.20117 0.38867,-6.05859 2.58008,-5.67383 0.0156,-0.125 -0.0801,-0.49805 -0.0547,-0.11133 -6.07227,-6.55468 z m 0.13477,0.46289 5.88086,6.34961 0.0586,0.36914 -2.56836,5.65039 -0.0176,0.0762 -0.38086,5.91992 -0.53125,0.0684 -1.76953,-5.30664 -0.0195,-0.043 -5.01171,-8.33984 0.4082,-0.2461 5.0332,8.37305 0.0312,0.0684 1.09961,3.29883 0.41992,-0.0547 0.2461,-3.83203 0.0312,-0.12109 2.49804,-5.49414 -0.0391,-0.23633 -5.7207,-6.17578 z"
                 id="path77" />
            </g>
            <g
               id="g58"
               style="fill:#b5a2f1;fill-opacity:1;stroke:#b5a2f1;stroke-width:0.432454;stroke-dasharray:none;stroke-opacity:1">
              <g
                 id="path57"
                 style="opacity:1">
                <path
                   style="font-variation-settings:'opsz' 96;baseline-shift:baseline;display:inline;overflow:visible;vector-effect:none;stroke:none;stroke-miterlimit:0;enable-background:accumulate;stop-color:#000000;stop-opacity:1"
                   d="m 454.17383,216.67969 -0.33985,0.84375 15.14258,6.08203 1.20703,8.81445 c -6.09914,-0.46092 -12.17813,-0.46752 -17.92968,1.88281 l -0.0371,0.0176 -5.08399,2.61524 -0.24219,0.3457 -0.77539,5.83984 -1.46679,5.37696 0.33398,0.5625 c 9.25868,2.18356 18.66862,1.90288 28.09375,0.97265 l 7.09766,2.62305 -7.35742,5.27148 -10.20508,-1.0332 -16.03321,-2.49805 -0.52539,0.44141 -0.37304,18.4375 0.43359,0.46484 24.30859,1.15625 0.043,-0.9082 -23.86523,-1.13672 0.35351,-17.47461 15.5293,2.41797 0.0234,0.004 10.39062,1.05078 0.31055,-0.082 8.19336,-5.8711 -0.10547,-0.79687 -7.98633,-2.95117 -0.20312,-0.0254 c -9.26489,0.91981 -18.4505,1.17344 -27.44922,-0.86719 l 1.3457,-4.92383 0.0117,-0.0606 0.74805,-5.63476 4.84375,-2.49219 c 5.71378,-2.33267 11.82398,-2.30709 18.06445,-1.80664 l 0.48828,-0.51562 -1.3164,-9.60157 -0.28125,-0.35937 z"
                   id="path78" />
                <path
                   style="font-variation-settings:'opsz' 96;baseline-shift:baseline;display:inline;overflow:visible;vector-effect:none;stroke:none;stroke-miterlimit:0;enable-background:accumulate;stop-color:#000000;stop-opacity:1"
                   d="m 454.25391,216.47852 -0.28125,0.12109 -0.33985,0.84375 0.1211,0.28125 15.02539,6.03516 1.15625,8.4414 c -6.02166,-0.44181 -12.04639,-0.43398 -17.76368,1.90235 l -0.01,0.004 -0.0371,0.0176 -0.008,0.004 -5.08399,2.61523 -0.0781,0.0664 -0.24219,0.3457 -0.0371,0.0957 -0.77344,5.82617 -1.46289,5.36329 0.0234,0.16796 0.33398,0.5625 0.13672,0.0996 c 9.27596,2.18764 18.69142,1.90525 28.10743,0.97852 l 6.67578,2.46875 -6.95899,4.98633 -10.11914,-1.02539 -16.02734,-2.4961 -0.17188,0.0469 -0.52539,0.4414 -0.0781,0.16211 -0.37305,18.4375 0.0586,0.15235 0.4336,0.46484 0.14844,0.0684 24.30859,1.15625 0.22656,-0.20703 0.043,-0.9082 -0.20703,-0.22657 -23.6543,-1.125 0.34375,-17.01757 15.28321,2.3789 0.0215,0.004 0.0156,0.002 10.39063,1.05078 0.0762,-0.006 0.31055,-0.082 0.0703,-0.0332 8.19336,-5.87109 0.0898,-0.20313 -0.10546,-0.79687 -0.14063,-0.17579 -7.98633,-2.95117 -0.0469,-0.0117 -0.20313,-0.0254 h -0.0488 c -9.17792,0.91118 -18.26346,1.15219 -27.15625,-0.82617 l 1.28321,-4.69336 0.004,-0.0156 0.0117,-0.0606 0.002,-0.0117 0.73242,-5.52344 4.72656,-2.43164 c 5.66333,-2.31207 11.735,-2.29256 17.96484,-1.79297 l 0.17383,-0.0664 0.48828,-0.51563 0.0586,-0.17773 -1.31641,-9.60156 -0.0449,-0.10352 -0.28125,-0.35937 -0.0899,-0.0684 z m 0.0391,0.48242 15.13281,6.08008 0.20899,0.26757 1.29492,9.43946 -0.35157,0.37304 c -6.21297,-0.49274 -12.32448,-0.51515 -18.05468,1.82422 l -0.0176,0.008 -4.84375,2.49219 -0.11524,0.16211 -0.74609,5.62891 -0.01,0.0469 -1.34375,4.91602 0.1621,0.26758 c 9.02197,2.0459 18.21938,1.791 27.48243,0.87304 l 0.16601,0.0195 7.83985,2.89844 0.0723,0.53906 -8.05664,5.77149 -0.23437,0.0625 -10.34375,-1.04688 -0.0156,-0.002 h -0.004 l -15.52929,-2.41797 -0.25,0.20899 -0.35352,17.47461 0.20703,0.2207 23.64844,1.125 -0.0234,0.47656 -24.0039,-1.14062 -0.3125,-0.33789 0.36914,-18.25196 0.375,-0.31445 15.93554,2.48242 0.0117,0.002 10.20508,1.03321 0.14649,-0.0391 7.35742,-5.27149 -0.0508,-0.37891 -7.09766,-2.62304 -0.0957,-0.0117 c -9.38619,0.92639 -18.74228,1.2001 -27.9375,-0.95313 l -0.23633,-0.39843 1.44336,-5.28907 0.006,-0.0273 0.76758,-5.78906 0.18164,-0.25781 5.0332,-2.58985 0.0234,-0.0117 0.004,-0.002 0.006,-0.002 c 5.69913,-2.32606 11.73726,-2.32314 17.82227,-1.86328 l 0.23047,-0.24415 -1.20703,-8.81445 -0.13477,-0.17187 -14.94141,-6.00196 z"
                   id="path79" />
              </g>
              <g
                 id="path58"
                 style="opacity:1">
                <path
                   style="font-variation-settings:'opsz' 96;baseline-shift:baseline;display:inline;overflow:visible;vector-effect:none;stroke:none;stroke-miterlimit:0;enable-background:accumulate;stop-color:#000000;stop-opacity:1"
                   d="m 469.99219,273.64453 -0.77735,0.47461 3.82618,6.26172 1.55468,3.00976 0.96875,2.94922 0.002,0.002 0.58789,1.7539 0.86328,-0.28906 -0.58789,-1.75391 -0.98047,-2.98046 -0.0274,-0.0664 -1.58007,-3.05664 -0.0156,-0.0293 z"
                   id="path80" />
                <path
                   style="font-variation-settings:'opsz' 96;baseline-shift:baseline;display:inline;overflow:visible;vector-effect:none;stroke:none;stroke-miterlimit:0;enable-background:accumulate;stop-color:#000000;stop-opacity:1"
                   d="m 469.87891,273.46094 -0.77735,0.47461 -0.0703,0.29687 3.82031,6.25391 1.54492,2.98828 0.96289,2.93359 0.0527,0.084 -0.0352,-0.0332 0.57227,1.70508 0.27344,0.13672 0.86328,-0.28906 0.13672,-0.27344 -0.58789,-1.75391 -0.98047,-2.98046 -0.006,-0.0137 -0.0274,-0.0664 -0.008,-0.0176 -1.58008,-3.05664 v -0.002 l -0.0156,-0.0293 -0.008,-0.0117 -3.83399,-6.27539 z m 0.041,0.48047 3.71875,6.08593 0.0117,0.0215 1.57422,3.04883 0.0215,0.0488 0.97852,2.97461 0.51953,1.54883 -0.45312,0.15235 -0.51954,-1.54883 -0.0527,-0.084 0.0352,0.0332 -0.95313,-2.90039 -0.0137,-0.0312 -1.55469,-3.00977 -0.008,-0.0137 -3.71289,-6.07617 z"
                   id="path81" />
              </g>
            </g>
          </g>
          <g
             id="path59"
             style="opacity:1">
            <path
               style="font-variation-settings:'opsz' 96;baseline-shift:baseline;display:inline;overflow:visible;vector-effect:none;stroke:none;stroke-miterlimit:0;enable-background:accumulate;stop-color:#000000;stop-opacity:1"
               d="m 453.0625,214.18945 -5.66406,2.47071 0.0781,0.86132 0.1543,0.0352 0.0996,-0.42383 0.0332,0.36133 5.33789,-2.32812 5.25196,6.79687 -0.51954,8.88672 0.0488,0.23437 5.31641,10.36329 0.32226,0.24023 7.81641,1.43555 0.16406,-0.89453 -7.5957,-1.39649 -5.15625,-10.05273 0.52148,-8.93164 -0.0937,-0.30469 -5.57226,-7.21485 z"
               id="path82" />
            <path
               style="font-variation-settings:'opsz' 96;baseline-shift:baseline;display:inline;overflow:visible;vector-effect:none;stroke:none;stroke-miterlimit:0;enable-background:accumulate;stop-color:#000000;stop-opacity:1"
               d="m 453.11523,213.98047 -0.13867,0.0117 -5.66406,2.4707 -0.12891,0.2168 0.0781,0.86133 0.16601,0.1914 0.1543,0.0352 0.19336,-0.1211 0.0742,0.0449 5.18359,-2.25977 5.09961,6.59961 -0.51562,8.80664 0.006,0.0566 0.0488,0.23438 0.0176,0.0547 5.31641,10.36328 0.0645,0.0742 0.32227,0.24024 0.0898,0.0391 7.81641,1.43555 0.25195,-0.17383 0.16406,-0.89453 -0.17382,-0.25196 -7.49024,-1.37695 -5.08203,-9.90625 0.51758,-8.87305 -0.008,-0.0762 -0.0937,-0.30468 -0.0352,-0.0684 -5.57227,-7.21485 -0.11914,-0.0762 z m -0.0351,0.43555 0.40039,0.10351 5.50195,7.125 0.0703,0.22852 -0.51953,8.89453 0.0234,0.11133 5.15625,10.05273 0.1543,0.11328 7.38281,1.35742 -0.0859,0.46875 -7.55469,-1.38672 -0.24023,-0.17968 -5.28125,-10.29297 -0.0371,-0.17774 0.51953,-8.85937 -0.0449,-0.14453 -5.25195,-6.79688 -0.25782,-0.0644 -5.06445,2.20898 -0.006,-0.0644 -0.29101,-0.0195 -0.0273,-0.29688 z"
               id="path83" />
          </g>
          <g
             id="path60"
             style="opacity:1">
            <path
               style="font-variation-settings:'opsz' 96;baseline-shift:baseline;display:inline;overflow:visible;vector-effect:none;stroke:none;stroke-miterlimit:0;enable-background:accumulate;stop-color:#000000;stop-opacity:1"
               d="m 458.84375,208.67578 -4.32422,4.03711 -0.0937,0.53906 4.69922,9.17774 0.33008,0.24218 9.80664,1.63477 8.59765,7.6875 2.31055,7.90039 0.87305,-0.25391 -2.3457,-8.02539 -0.13282,-0.21289 -8.79492,-7.86132 -0.22851,-0.10938 -9.71094,-1.62109 -4.43946,-8.66602 4.07032,-3.79883 0.0137,0.008 0.0664,-0.10547 z"
               id="path84" />
            <path
               style="font-variation-settings:'opsz' 96;baseline-shift:baseline;display:inline;overflow:visible;vector-effect:none;stroke:none;stroke-miterlimit:0;enable-background:accumulate;stop-color:#000000;stop-opacity:1"
               d="m 458.98047,208.50781 -0.28516,0.01 -4.32422,4.03711 -0.0644,0.12109 -0.0937,0.53906 0.0195,0.13477 4.69922,9.17773 0.0664,0.0762 0.33007,0.24218 0.0918,0.0391 9.74414,1.625 8.50586,7.60351 2.29297,7.8418 0.26758,0.14648 0.87305,-0.2539 0.14648,-0.26758 -2.3457,-8.02539 -0.0234,-0.0547 -0.13281,-0.21289 -0.0391,-0.0469 -8.79492,-7.86132 -0.0508,-0.0332 -0.22851,-0.10937 -0.0586,-0.0176 -9.60351,-1.60352 -4.31446,-8.42382 3.83203,-3.57813 -0.125,-0.0723 0.29297,-0.0723 0.0664,-0.10547 -0.0469,-0.28125 z m -0.12695,0.45508 0.37109,0.30664 -3.98242,3.7168 -0.0449,0.25586 4.43945,8.66601 0.1582,0.11524 9.67969,1.61718 0.17383,0.082 8.74804,7.82031 0.10157,0.16211 2.27734,7.78906 -0.45898,0.13281 -2.25,-7.69336 -0.0625,-0.10156 -8.59766,-7.6875 -0.10938,-0.0508 -9.75585,-1.62695 -0.2461,-0.18164 -4.64453,-9.06836 0.0703,-0.39453 z m 0.54882,0.0977 0.16797,0.0976 -0.24609,0.0274 z"
               id="path85" />
          </g>
        </g>
        <g
           id="path67"
           style="opacity:1">
          <path
             style="font-size:19.05px;font-family:'Bodoni Moda';-inkscape-font-specification:'Bodoni Moda, @opsz=96';font-variation-settings:'opsz' 96;text-align:center;baseline-shift:baseline;text-anchor:middle;display:inline;overflow:visible;vector-effect:none;fill:#f5f7fa;stroke-miterlimit:0;enable-background:accumulate;stop-color:#000000;stop-opacity:1"
             d="m 459.35599,177.2756 q -1.24966,0.30298 -2.19556,0.12067 -0.93663,-0.18456 -1.64437,-0.71863 l -0.68133,1.59613 -0.037,0.009 -0.92018,-3.7953 0.0371,-0.009 q 0.35711,0.78571 0.85167,1.41067 0.49231,0.61571 1.13637,1.00841 0.65332,0.39046 1.46345,0.49788 0.81937,0.10516 1.82836,-0.13941 0.98122,-0.2379 1.63649,-0.7692 0.65526,-0.53131 0.90574,-1.31731 0.24823,-0.79525 0.004,-1.80424 -0.1975,-0.8146 -0.7417,-1.28051 -0.54421,-0.46593 -1.3117,-0.72089 -0.76748,-0.25496 -1.66034,-0.42072 -0.88362,-0.16801 -1.78323,-0.36154 -0.89035,-0.19578 -1.68027,-0.5433 -0.79218,-0.3568 -1.37453,-0.98008 -0.58236,-0.62328 -0.83148,-1.65079 -0.24688,-1.01825 0.0945,-1.91448 0.34837,-0.90775 1.11528,-1.54452 0.76465,-0.64605 1.79215,-0.89516 0.94419,-0.22893 1.77508,-0.11676 0.83087,0.11218 1.52038,0.61148 l 0.70349,-1.46429 0.037,-0.009 0.92018,3.79529 -0.037,0.009 q -0.49708,-1.24181 -1.22447,-1.93774 -0.71812,-0.69817 -1.60847,-0.89395 -0.89259,-0.20503 -1.88308,0.0351 -1.33298,0.32318 -1.86565,1.15799 -0.53491,0.82557 -0.26784,1.92713 0.1773,0.73129 0.70104,1.15316 0.52146,0.41261 1.26595,0.65356 0.74224,0.23169 1.60734,0.40417 0.87212,0.161 1.75069,0.38903 0.88557,0.21654 1.6682,0.61485 0.78264,0.39831 1.37146,1.08862 0.58656,0.68107 0.85588,1.79188 0.29176,1.20339 -0.009,2.22699 -0.30291,1.01433 -1.14443,1.74761 -0.83451,0.72178 -2.13972,1.03823 z m 6.21755,-10.81836 2.0558,8.47924 1.11082,-0.26932 0.009,0.037 -3.88786,0.94262 -0.009,-0.037 1.12008,-0.27156 -2.04682,-8.44221 -1.12008,0.27156 -0.009,-0.037 z m 6.28882,1.23914 1.4229,5.86882 1.11082,-0.26932 0.009,0.037 -3.88786,0.94262 -0.009,-0.037 1.10155,-0.26707 -1.37353,-5.66518 q -0.18852,-0.77757 -0.41493,-1.42834 -0.22642,-0.65078 -0.56582,-0.99973 -0.33017,-0.3512 -0.84855,-0.22552 -0.99049,0.24016 -1.46144,0.84439 -0.46171,0.60198 -0.5666,1.38209 -0.10714,0.77085 -0.004,1.55936 0.11224,0.78627 0.2626,1.40648 l -0.0146,0.1015 q -0.15935,-0.65724 -0.27831,-1.47127 -0.12124,-0.8233 -0.0208,-1.62192 0.10966,-0.80086 0.6154,-1.42332 0.51501,-0.62472 1.6073,-0.88956 1.08306,-0.26258 1.73525,-0.0384 0.66146,0.22186 1.01996,0.81121 0.36553,0.57785 0.56078,1.38318 z m 10.92797,3.79953 q -0.43505,0.1055 -0.85302,0.0794 -0.41572,-0.0168 -0.74869,-0.29873 -0.32373,-0.28414 -0.48307,-0.94138 l -1.03014,-4.24888 q -0.16159,-0.66648 -0.42725,-1.31756 -0.2587,-0.66254 -0.72038,-1.03085 -0.45248,-0.37054 -1.19303,-0.191 -0.51837,0.1257 -0.99608,0.37871 -0.47771,0.25304 -0.84517,0.59695 -0.36044,0.33242 -0.53883,0.72851 -0.17139,0.38458 -0.0726,0.79188 l -0.0185,0.004 q -0.1145,-0.47209 0.12594,-0.81461 0.24739,-0.35401 0.61766,-0.44378 0.39804,-0.0965 0.78488,0.0841 0.39384,0.16915 0.5083,0.64124 0.1347,0.55541 -0.14725,0.88838 -0.27265,0.33073 -0.65217,0.42274 -0.42582,0.1032 -0.78487,-0.0841 -0.34981,-0.18962 -0.47101,-0.68948 -0.1055,-0.43507 0.0799,-0.84266 0.19241,-0.41909 0.5969,-0.77198 0.4115,-0.36439 0.97252,-0.63762 0.55877,-0.2825 1.18823,-0.43511 1.27744,-0.30971 2.00538,-0.0158 0.73719,0.29171 1.0999,0.93885 0.37197,0.64488 0.55376,1.39469 l 1.16257,4.79503 q 0.0808,0.33324 0.27098,0.55175 0.19722,0.20702 0.59525,0.11051 0.324,-0.0785 0.63648,-0.48755 0.32172,-0.41124 0.42523,-0.99498 l 0.0323,0.0117 q -0.097,0.65079 -0.54192,1.16048 -0.44712,0.50045 -1.13213,0.66653 z m -4.26738,1.03464 q -1.20339,0.29176 -2.07354,-0.14414 -0.86316,-0.44738 -1.11901,-1.50267 -0.30073,-1.24041 0.57668,-2.14901 0.88443,-0.9201 2.85613,-1.39814 l 2.00873,-0.48702 0.009,0.037 -2.00874,0.48702 q -0.8146,0.1975 -1.18795,0.71926 -0.36633,0.51026 -0.43307,1.1243 -0.0575,0.6118 0.0659,1.12093 0.1122,0.46284 0.34673,0.94504 0.23228,0.47293 0.59527,0.75736 0.36074,0.27517 0.8421,0.15846 0.55541,-0.1346 0.93745,-0.58011 0.3798,-0.45472 0.48021,-1.25334 0.1004,-0.79861 -0.18687,-1.98349 l 0.037,-0.009 q 0.25586,1.05527 0.18969,1.91421 -0.0662,0.85892 -0.53238,1.4424 -0.45919,0.57197 -1.40338,0.80089 z m 6.74037,-1.83023 -0.009,-0.037 1.49035,-0.36134 -3.34853,-13.81118 -1.49035,0.36135 -0.009,-0.0371 3.14731,-0.76306 3.35751,13.84819 1.29596,-0.3142 0.009,0.037 z m 5.72997,-1.38924 -0.009,-0.037 1.37001,-0.33216 -5.25407,-3.80304 3.73488,-4.76711 -2.09204,0.50723 -0.009,-0.037 3.75827,-0.91119 0.009,0.037 -1.61994,0.39275 -2.72789,3.50366 6.30208,4.56825 0.73129,-0.17731 0.009,0.037 z m 8.91293,-1.96493 q -1.21265,0.29401 -2.3218,0.004 -1.10212,-0.30124 -1.91619,-1.15258 -0.81631,-0.86059 -1.15296,-2.24911 -0.33665,-1.38852 -0.0214,-2.51366 0.32228,-1.13663 1.15706,-1.89768 0.83254,-0.77031 2.04518,-1.06432 1.37926,-0.3344 2.3563,0.0168 0.97478,0.34192 1.56977,1.13855 0.60424,0.7944 0.84888,1.80339 l -6.85006,1.6608 -0.009,-0.037 4.8876,-1.18499 q -0.12275,-0.54851 -0.34501,-1.18068 -0.22417,-0.64152 -0.56218,-1.18683 -0.33102,-0.55681 -0.80257,-0.84432 -0.46453,-0.29902 -1.08473,-0.14865 -0.68501,0.16609 -1.04433,0.66485 -0.35232,0.48726 -0.4544,1.19808 -0.10433,0.70155 -0.0269,1.50606 0.0867,0.80226 0.27972,1.59834 0.19077,0.78684 0.48336,1.54897 0.2996,0.75064 0.72291,1.32428 0.43033,0.56213 1.00593,0.83421 0.58263,0.26058 1.34169,0.0766 1.44407,-0.35012 2.17224,-1.38915 0.72818,-1.03903 0.7924,-2.26991 l 0.0371,-0.009 q -0.0693,1.29092 -0.81596,2.33444 -0.7467,1.04352 -2.29258,1.41832 z m 5.36957,-10.47555 4.90629,5.92596 -0.3357,2.37481 -6.42195,-7.8519 -0.83312,0.20198 -0.009,-0.037 4.12855,-1.00097 0.009,0.037 z m 7.27615,-1.80331 0.009,0.037 -1.24041,0.30074 -1.98008,13.33893 q -0.11303,0.62527 -0.29367,1.01209 -0.18064,0.38684 -0.70827,0.51476 -0.23143,0.0561 -0.49679,0.0127 -0.26536,-0.0434 -0.48586,-0.22523 -0.21824,-0.17252 -0.30352,-0.52428 -0.0741,-0.30547 -5.9e-4,-0.56832 0.0828,-0.26507 0.28275,-0.45078 0.2,-0.1857 0.49622,-0.25752 0.27771,-0.0673 0.5613,0.011 0.28585,0.0875 0.51082,0.28779 0.22723,0.20954 0.31503,0.53128 l 2.04712,-13.66881 -1.58292,0.38379 -0.009,-0.037 z m 1.97347,3.16748 -0.009,-0.037 4.44327,-1.07728 0.009,0.037 z m 13.88257,2.20111 q -1.87914,0.45559 -3.51761,-0.11744 -1.64073,-0.5823 -2.82732,-1.99998 -1.17734,-1.41992 -1.67783,-3.48419 -0.50048,-2.06427 -0.10417,-3.86572 0.40558,-1.8037 1.59969,-3.06351 1.19185,-1.26906 3.07099,-1.72465 0.93493,-0.22669 1.83958,-0.0932 0.91391,0.13126 1.65924,0.57781 l 0.85974,-1.34535 0.037,-0.009 0.92017,3.79529 -0.037,0.009 q -0.27381,-1.12933 -1.07945,-1.86509 -0.80565,-0.73576 -1.87103,-1.00672 -1.06539,-0.27094 -2.12068,-0.0151 -1.20338,0.29177 -1.89538,1.11621 -0.685,0.81294 -0.945,1.96388 -0.25299,1.13944 -0.18143,2.44522 0.0693,1.29652 0.37679,2.56471 0.30524,1.25892 0.83963,2.45249 0.53441,1.19355 1.2834,2.09987 0.756,0.89481 1.73947,1.31303 0.99051,0.40671 2.1939,0.11495 0.9627,-0.23341 1.67547,-0.72964 0.71977,-0.50775 1.16128,-1.19305 0.44152,-0.68529 0.57866,-1.45362 0.14417,-0.77983 -0.0443,-1.55741 l 0.037,-0.009 0.92018,3.7953 -0.0371,0.009 -1.30805,-0.90797 q -0.45132,0.76607 -1.26171,1.34479 -0.80113,0.57647 -1.88417,0.83906 z m 10.41391,-2.52486 q -1.30521,0.31645 -2.40679,-0.0633 -1.09232,-0.38202 -1.85533,-1.26533 -0.76302,-0.88332 -1.05478,-2.0867 -0.29176,-1.20339 -0.018,-2.33805 0.27374,-1.13469 1.06981,-1.97456 0.80533,-0.84212 2.11053,-1.15857 1.30522,-0.31644 2.4068,0.0633 1.10158,0.37978 1.85533,1.26535 0.76301,0.8833 1.05477,2.08669 0.29176,1.20338 0.018,2.33806 -0.26449,1.13243 -1.06982,1.97455 -0.80533,0.84211 -2.11054,1.15856 z m -0.009,-0.037 q 0.75906,-0.18403 1.10716,-0.72907 0.35736,-0.54729 0.42494,-1.27914 0.0653,-0.74111 -0.0446,-1.51812 -0.10298,-0.78852 -0.26009,-1.43649 -0.15936,-0.65724 -0.42668,-1.3961 -0.25808,-0.74111 -0.65335,-1.36075 -0.39749,-0.6289 -0.96582,-0.95175 -0.55906,-0.32509 -1.31813,-0.14106 -0.75906,0.18403 -1.11641,0.73133 -0.34809,0.54502 -0.41344,1.28615 -0.0676,0.73185 0.0331,1.51111 0.10994,0.77702 0.26933,1.43424 0.1571,0.64798 0.41743,1.39835 0.26732,0.73887 0.66485,1.36775 0.39525,0.61964 0.95432,0.94474 0.56832,0.32285 1.32738,0.13881 z m 9.90927,-2.38295 q -1.00899,0.24463 -2.03483,-0.0653 -1.02584,-0.30994 -1.83064,-1.16351 -0.79556,-0.85583 -1.13221,-2.24434 -0.33664,-1.38853 -0.0214,-2.51366 0.32229,-1.13664 1.09227,-1.88199 0.76775,-0.75459 1.77673,-0.99922 1.24968,-0.30299 2.2169,0.45242 0.96498,0.74613 1.52604,2.41347 l -2.11191,-8.71067 -1.11082,0.26932 -0.009,-0.037 2.7863,-0.67553 3.35751,13.84819 1.11082,-0.26931 0.009,0.037 -2.78629,0.67554 -0.81918,-3.37873 q 0.26484,1.73916 -0.25126,2.84439 -0.51837,1.09597 -1.76804,1.39895 z m 0.24629,-0.19692 q 0.72203,-0.17506 1.19776,-0.80005 0.47573,-0.625 0.58707,-1.66149 0.1206,-1.03874 -0.22501,-2.46429 -0.34562,-1.42554 -0.92854,-2.29371 -0.57592,-0.87967 -1.28506,-1.21738 -0.71138,-0.34699 -1.43341,-0.17193 -0.77758,0.18852 -1.14054,0.87439 -0.36521,0.6766 -0.36799,1.71618 -0.005,1.03031 0.29572,2.27072 0.30073,1.24042 0.77707,2.15403 0.47633,0.91362 1.11085,1.34783 0.63453,0.43422 1.41211,0.2457 z m 11.19962,-2.55855 q -1.21263,0.294 -2.32179,0.004 -1.10213,-0.30124 -1.9162,-1.15258 -0.81631,-0.86058 -1.15296,-2.24911 -0.33665,-1.38851 -0.0214,-2.51365 0.32229,-1.13664 1.15706,-1.8977 0.83255,-0.77031 2.04519,-1.06431 1.37926,-0.3344 2.35629,0.0168 0.97479,0.34193 1.56977,1.13856 0.60424,0.7944 0.84887,1.80339 l -6.85005,1.6608 -0.009,-0.037 4.88759,-1.18501 q -0.12265,-0.5485 -0.345,-1.18067 -0.22417,-0.64152 -0.56218,-1.18683 -0.33101,-0.5568 -0.80256,-0.84432 -0.46453,-0.29901 -1.08475,-0.14864 -0.685,0.16608 -1.04431,0.66483 -0.35232,0.48726 -0.4544,1.19808 -0.10433,0.70156 -0.0269,1.50606 0.0867,0.80227 0.27971,1.59835 0.19077,0.78684 0.48337,1.54898 0.2996,0.75063 0.7229,1.32427 0.43032,0.56214 1.00594,0.83422 0.58263,0.26058 1.34168,0.0765 1.44407,-0.35012 2.17225,-1.38915 0.72818,-1.03903 0.79238,-2.26991 l 0.037,-0.009 q -0.0693,1.29091 -0.81595,2.33443 -0.74669,1.04352 -2.29258,1.41832 z"
             id="path86" />
          <path
             style="font-size:19.05px;font-family:'Bodoni Moda';-inkscape-font-specification:'Bodoni Moda, @opsz=96';font-variation-settings:'opsz' 96;text-align:center;baseline-shift:baseline;text-anchor:middle;display:inline;overflow:visible;vector-effect:none;fill:#f5f7fa;stroke-miterlimit:0;enable-background:accumulate;stop-color:#000000;stop-opacity:1"
             d="m 549.75195,139.84766 -2.78711,0.67578 -0.36914,0.60547 0.01,0.0371 0.60547,0.36914 0.62304,-0.15235 1.29883,5.35352 c -0.0159,-0.0128 -0.021,-0.0442 -0.0371,-0.0566 -0.16362,-0.12764 -0.36181,-0.16228 -0.54101,-0.25196 -0.009,-0.004 -0.0145,-0.0172 -0.0234,-0.0215 -0.01,-0.005 -0.0213,8.1e-4 -0.0312,-0.004 -0.63195,-0.3003 -1.32118,-0.44157 -2.04688,-0.26562 -0.7582,0.18383 -1.43739,0.56697 -2.00781,1.12695 -0.5787,0.56089 -0.98927,1.27353 -1.22461,2.10352 v 0.002 c -0.23712,0.84632 -0.22455,1.77693 0.0156,2.76758 0.24018,0.99064 0.65548,1.82304 1.2539,2.4668 l 0.002,0.002 c 0.58869,0.62437 1.27965,1.0678 2.05078,1.30078 0.76241,0.23034 1.53928,0.25594 2.29687,0.0723 0.72897,-0.17674 1.28036,-0.61554 1.70703,-1.16993 0.005,-0.006 0.0131,-0.006 0.0176,-0.0117 0.004,-0.005 0.004,-0.0142 0.008,-0.0195 0.12043,-0.16097 0.28221,-0.28279 0.37109,-0.4707 l 0.002,-0.002 c 0.008,-0.0182 -0.002,-0.0481 0.006,-0.0664 l 0.12305,0.50586 0.60547,0.36914 2.78515,-0.67578 0.36914,-0.60547 -0.01,-0.0371 -0.60352,-0.36914 -0.625,0.15234 -3.23828,-13.36132 z m -0.25195,1.09375 3.13086,12.91015 -0.70117,0.16992 -0.70117,-2.89257 -0.13282,0.0254 c -0.0451,-0.31289 0.002,-0.56515 -0.0801,-0.9043 -0.0823,-0.33945 -0.2385,-0.54276 -0.34179,-0.8418 l 0.1289,-0.0371 -2.0039,-8.25976 z m 8.33984,2.43359 c -0.87943,0.21321 -1.6452,0.60825 -2.26562,1.18164 -0.62461,0.56945 -1.06294,1.29206 -1.30078,2.13086 v 0.002 c -0.23713,0.84633 -0.22456,1.77499 0.0156,2.76563 0.24071,0.99282 0.66417,1.83013 1.27735,2.47656 l 0.002,0.002 c 0.60041,0.6279 1.32614,1.06485 2.14648,1.28907 l 0.004,0.002 c 0.82282,0.21513 1.68924,0.21119 2.56836,-0.002 1.11618,-0.27062 2.00548,-0.80755 2.58203,-1.61329 0.55043,-0.76927 0.85722,-1.64997 0.9082,-2.5996 l -0.61914,-0.51368 -0.0371,0.008 -0.38281,0.46093 c -0.038,0.72945 -0.26514,1.38761 -0.70117,2.00977 -0.41125,0.5868 -1.00977,0.97825 -1.88086,1.18945 -0.42238,0.10244 -0.73859,0.074 -1.01172,-0.0469 -0.30404,-0.14466 -0.57314,-0.36258 -0.81641,-0.67969 -6.2e-4,-8.2e-4 -10e-4,-0.001 -0.002,-0.002 -0.25098,-0.34116 -0.46985,-0.73844 -0.6543,-1.19922 l -0.002,-0.006 c -0.18644,-0.48636 -0.33934,-0.98088 -0.46094,-1.48242 -0.005,-0.0227 -0.006,-0.0456 -0.0117,-0.0684 l 5.65429,-1.3711 0.36914,-0.60547 c -0.17805,-0.73437 -0.49137,-1.40176 -0.93554,-1.98632 l -0.002,-0.002 c -0.45358,-0.60639 -1.06704,-1.04907 -1.79883,-1.30664 -5.6e-4,-2e-4 -10e-4,2.1e-4 -0.002,0 -0.7693,-0.27605 -1.65839,-0.27181 -2.64258,-0.0332 z m 2.17188,0.97656 c 0.0355,0.0109 0.0986,-0.0123 0.13281,0 h 0.004 c 0.56516,0.19825 0.9953,0.51333 1.33398,0.9668 l 0.002,0.002 c 0.25746,0.33848 0.39456,0.75093 0.54297,1.15625 l -0.91015,0.22071 c -0.0707,-0.25735 -0.13107,-0.5081 -0.22852,-0.78516 -0.15961,-0.45622 -0.36041,-0.88196 -0.60351,-1.27539 -0.0715,-0.12026 -0.19092,-0.17817 -0.27344,-0.28516 z m -1.92578,0.0352 c 0.31167,-0.0756 0.50318,-0.0416 0.69531,0.082 l 0.01,0.008 c 0.23606,0.14394 0.4462,0.35798 0.63281,0.67188 l 0.004,0.008 c 0.20511,0.33089 0.37748,0.69253 0.51563,1.08789 v 0.002 c 0.0827,0.23499 0.12908,0.43633 0.18945,0.65039 l -3.11719,0.75586 c -0.0211,-0.14415 -0.0605,-0.28721 -0.0762,-0.43164 v -0.006 c -0.0475,-0.49866 -0.0371,-0.95841 0.0254,-1.3789 v -0.002 c 0.0588,-0.4095 0.18276,-0.72689 0.36328,-0.97656 h 0.002 c 0.16664,-0.23131 0.39137,-0.38233 0.75586,-0.4707 z m -28.85742,0.4375 -0.0371,0.008 -0.30274,0.2168 -0.65234,1.02148 c -0.22779,-0.10558 -0.46976,-0.17997 -0.71485,-0.25 -0.0436,-0.0123 -0.0731,-0.0513 -0.11718,-0.0625 -0.0221,-0.006 -0.0443,0.005 -0.0664,0 -0.16487,-0.0403 -0.30107,-0.14131 -0.47266,-0.16601 h -0.002 c -0.6677,-0.0983 -1.34877,-0.0635 -2.0293,0.10156 -1.33276,0.32312 -2.45427,0.94908 -3.31836,1.86914 -0.85771,0.90565 -1.43681,2.01698 -1.7246,3.29687 v 0.002 c -0.28236,1.28346 -0.24125,2.65371 0.10742,4.09179 0.34867,1.43809 0.94048,2.67391 1.77929,3.68555 v 0.002 c 0.84238,1.00643 1.86615,1.73204 3.04493,2.1504 h 0.002 c 1.18778,0.4154 2.46881,0.45574 3.80078,0.13281 0.77617,-0.18819 1.46686,-0.49413 2.05859,-0.91992 0.43276,-0.30905 0.72879,-0.70627 1.0293,-1.09961 l 0.96289,0.66797 0.4043,0.0742 0.0371,-0.008 0.36914,-0.60547 -0.91992,-3.79492 -0.60743,-0.36914 -0.0352,0.008 -0.36914,0.60547 c 0.10971,0.45266 0.12071,0.89547 0.0371,1.34766 v 0.004 c -0.0796,0.44598 -0.24492,0.86452 -0.50586,1.26954 -0.25769,0.39998 -0.59681,0.74959 -1.0293,1.05468 -0.41828,0.29093 -0.91428,0.50939 -1.50391,0.65235 -0.7198,0.17451 -1.33134,0.13624 -1.88671,-0.0918 -0.57553,-0.24593 -1.08594,-0.62827 -1.54297,-1.16797 l -0.002,-0.002 c -6.4e-4,-7.7e-4 -10e-4,-0.001 -0.002,-0.002 -0.46641,-0.56516 -0.86985,-1.22305 -1.20898,-1.98046 -0.34395,-0.76821 -0.61234,-1.55776 -0.8086,-2.36719 -0.1978,-0.81582 -0.31872,-1.63908 -0.36328,-2.47266 -0.0455,-0.82963 0.0125,-1.59879 0.16992,-2.30859 v -0.002 c 0.15815,-0.69887 0.43658,-1.27178 0.83789,-1.74805 l 0.002,-0.002 c 0.38805,-0.46232 0.91036,-0.77696 1.6289,-0.95118 0.62009,-0.15033 1.23095,-0.143 1.85938,0.0137 0.0192,0.005 0.0357,0.0144 0.0547,0.0195 0.61709,0.16341 1.15285,0.44347 1.62109,0.87109 0.46366,0.42344 0.76976,0.9456 0.93164,1.61328 l 0.60547,0.36914 0.0371,-0.008 0.36719,-0.60547 -0.91993,-3.79492 z m 26.74218,0.93164 c -0.0679,0.49454 -0.0821,1.01234 -0.0293,1.56055 l 0.002,0.006 c 0.0204,0.18911 0.0707,0.3759 0.0996,0.56445 l -0.28711,0.0703 -0.36914,0.60547 0.01,0.0371 0.60547,0.36914 0.22071,-0.0527 c 0.005,0.0227 0.006,0.0457 0.0117,0.0684 0.13228,0.54558 0.29927,1.08338 0.50196,1.61133 l 0.002,0.006 c 0.20136,0.5045 0.45267,0.95022 0.74024,1.35352 -0.41797,-0.19023 -0.84434,-0.35802 -1.18555,-0.71485 -0.47467,-0.50086 -0.8213,-1.16163 -1.0293,-2.01953 -0.20868,-0.8607 -0.20859,-1.60786 -0.0254,-2.26172 0.13895,-0.48927 0.44064,-0.84039 0.73242,-1.20312 z m -26.84179,0.78125 0.041,0.16992 c -0.0341,-0.0268 -0.0786,-0.0348 -0.11328,-0.0606 z M 547,147.17187 c 0.44399,-0.0491 0.8431,0.0234 1.20898,0.24415 0.20231,0.11431 0.39825,0.35273 0.59571,0.57226 0.24173,0.26898 0.45489,0.63277 0.65429,1.04883 0.20995,0.43428 0.4321,0.83078 0.58204,1.44922 0.14989,0.61827 0.1342,1.07257 0.14648,1.55469 0.0132,0.45866 -0.0109,0.87806 -0.10156,1.22656 -0.0757,0.28559 -0.14065,0.58772 -0.26953,0.7832 -0.21805,0.34407 -0.53655,0.57546 -0.9336,0.73438 -0.0131,0.003 -0.0198,0.0182 -0.0332,0.0215 -0.40238,0.0976 -0.69342,0.0446 -1.00977,-0.17187 -0.33601,-0.22995 -0.6588,-0.60899 -0.94922,-1.16602 -0.29455,-0.56495 -0.54152,-1.24558 -0.73437,-2.04102 -0.19284,-0.79543 -0.28434,-1.51327 -0.28125,-2.15039 0.002,-0.63463 0.1139,-1.12338 0.30664,-1.48047 l 0.002,-0.002 c 0.18163,-0.3432 0.41597,-0.52596 0.81641,-0.62305 z m -1.84375,0.80274 c -0.12599,0.41078 -0.28365,0.79916 -0.28516,1.29883 -0.004,0.73662 0.10243,1.53217 0.31055,2.39062 0.20813,0.85846 0.47779,1.61438 0.81836,2.26758 0.22826,0.43782 0.54588,0.70841 0.84375,1.01367 -0.004,-0.001 -0.008,0.001 -0.0117,0 -0.59498,-0.17976 -1.12416,-0.51218 -1.60742,-1.02344 l -0.002,-0.002 c -0.46151,-0.49716 -0.80328,-1.15982 -1.01172,-2.01953 -0.20868,-0.86072 -0.20859,-1.60787 -0.0254,-2.26172 0.19416,-0.68376 0.51245,-1.224 0.95898,-1.65625 l 0.002,-0.002 c 0.003,-0.003 0.007,-0.003 0.01,-0.006 z m -22.85156,0.24023 c -0.15109,0.33356 -0.38945,0.60544 -0.47461,0.98243 v 0.002 c -0.17961,0.80895 -0.24327,1.67132 -0.19336,2.58203 0.0479,0.89446 0.1786,1.77982 0.39062,2.6543 0.21074,0.86913 0.50057,1.71584 0.86914,2.53906 0.37264,0.83223 0.82265,1.57246 1.35352,2.21484 l 0.004,0.004 c 0.24737,0.2928 0.58303,0.42788 0.86914,0.6543 -0.0199,-0.007 -0.0446,0.005 -0.0645,-0.002 h -0.002 c -1.00821,-0.35811 -1.87,-0.96624 -2.60937,-1.84961 -0.73017,-0.88125 -1.2558,-1.96596 -1.57422,-3.27929 -0.31865,-1.31428 -0.34762,-2.52216 -0.10157,-3.64063 0.25295,-1.12284 0.73988,-2.05307 1.47266,-2.82617 l 0.002,-0.002 c 0.0151,-0.0161 0.0433,-0.0173 0.0586,-0.0332 z m 14.24414,0.32227 c -0.94616,0.2294 -1.7448,0.66231 -2.35352,1.29883 l -0.002,0.002 c -0.58853,0.62091 -0.9915,1.36637 -1.19336,2.20313 -0.20151,0.8352 -0.19389,1.70004 0.0176,2.57226 0.21147,0.87222 0.60047,1.64669 1.16211,2.29688 0.56267,0.65138 1.26277,1.12773 2.07031,1.41015 l 0.002,0.002 c 0.79572,0.2743 1.66733,0.27041 2.56836,0.0723 0.0418,-0.009 0.0772,0.0141 0.11914,0.004 0.94617,-0.2294 1.74676,-0.66232 2.35547,-1.29883 0.59512,-0.6223 0.99946,-1.36788 1.19531,-2.20508 v -0.002 c 0.20104,-0.83463 0.19178,-1.69876 -0.0195,-2.57031 -0.21125,-0.87134 -0.59944,-1.64516 -1.16015,-2.29493 l -0.002,-0.002 c -0.55741,-0.65415 -1.25659,-1.13157 -2.07031,-1.41211 -0.83263,-0.28703 -1.74329,-0.30556 -2.68945,-0.0762 z m 0.24609,1.01172 c 0.41296,-0.10012 0.69534,-0.0586 0.94727,0.0879 l 0.004,0.002 c 0.30097,0.17097 0.56298,0.42241 0.79102,0.7832 v 0.002 c 0.24138,0.3784 0.44333,0.79587 0.60351,1.25586 l 0.002,0.006 c 0.17287,0.47782 0.3089,0.92617 0.41015,1.34375 0.0997,0.41109 0.18331,0.87211 0.25,1.38281 l 0.002,0.006 c 0.0682,0.48249 0.081,0.94998 0.041,1.4043 -0.0389,0.41776 -0.1558,0.758 -0.3457,1.04882 l -0.002,0.004 c -0.15687,0.24561 -0.38979,0.4116 -0.80274,0.51172 -0.41212,0.0999 -0.70139,0.0591 -0.96094,-0.0879 h -0.002 c -0.2951,-0.17286 -0.55347,-0.42332 -0.7793,-0.77735 -0.2431,-0.38493 -0.44732,-0.80623 -0.61328,-1.26367 l -0.002,-0.004 c -2.1e-4,-5.8e-4 2.1e-4,-0.001 0,-0.002 -0.1681,-0.48508 -0.30255,-0.93408 -0.40234,-1.3457 -0.10138,-0.418 -0.18666,-0.87926 -0.25782,-1.38086 -0.0627,-0.48558 -0.0727,-0.95142 -0.0312,-1.40039 v -0.002 c 0.0375,-0.42556 0.15101,-0.76887 0.33399,-1.05664 0.16345,-0.25034 0.40151,-0.41747 0.81445,-0.51758 z m 2.58985,0.33789 c 0.41725,0.21888 0.84462,0.41801 1.1621,0.79101 l 0.004,0.004 c 0.45571,0.52756 0.76777,1.14466 0.94531,1.87695 0.17755,0.73229 0.18304,1.42387 0.0195,2.10157 l -0.002,0.004 c -0.11153,0.47755 -0.39873,0.85226 -0.66992,1.23828 0.046,-0.52947 0.0303,-1.0703 -0.0469,-1.61914 v -0.006 c -0.0705,-0.53826 -0.16014,-1.03323 -0.26953,-1.48437 -0.11077,-0.45687 -0.25694,-0.93831 -0.43945,-1.44336 -0.18363,-0.52732 -0.4181,-1.01569 -0.70312,-1.46289 z m -4.73829,1.14844 c -0.0485,0.52623 -0.0363,1.06637 0.0352,1.61914 l 0.002,0.006 c 0.0753,0.53187 0.16664,1.02595 0.27735,1.48242 0.10923,0.45055 0.25367,0.93235 0.43164,1.44531 l 0.002,0.006 c 0.18856,0.52118 0.42615,1.00619 0.70899,1.45508 -0.4162,-0.21975 -0.84153,-0.42153 -1.16407,-0.79492 -0.45572,-0.52757 -0.76972,-1.14467 -0.94726,-1.87696 -0.17755,-0.73229 -0.18108,-1.42388 -0.0176,-2.10156 0.11578,-0.47993 0.40229,-0.8541 0.67187,-1.24023 z m -22.21289,3.54492 -2.8789,0.69726 -0.36914,0.60743 0.01,0.0371 0.60547,0.36719 0.85742,-0.20703 -0.82422,5.50781 -3.66015,-4.42187 0.66406,-0.16016 0.36914,-0.60547 -0.01,-0.0371 -0.60547,-0.36914 -4.12696,1.00196 -0.36914,0.60547 0.008,0.0371 0.60546,0.36719 0.52735,-0.12695 6.04687,7.39258 -0.40625,2.70703 c -0.1139,-0.0632 -0.2128,-0.15312 -0.33789,-0.19141 l -0.0137,-0.004 c -0.26505,-0.0732 -0.54614,-0.0802 -0.8125,-0.0156 -0.26853,0.0651 -0.51859,0.19306 -0.71875,0.37891 -0.19517,0.18127 -0.34236,0.41343 -0.42187,0.66797 l -0.004,0.0137 c -0.0743,0.26583 -0.07,0.54969 -0.004,0.82226 0.0752,0.30999 0.22997,0.59688 0.47852,0.79493 0.2071,0.16943 0.45565,0.28704 0.71875,0.33007 0.23378,0.0382 0.46962,0.0352 0.69531,-0.0195 0.45149,-0.10946 0.85428,-0.3808 1.04492,-0.78906 0.14729,-0.31539 0.25158,-0.68972 0.33203,-1.13477 l 0.002,-0.0156 1.93164,-13.00586 0.91211,-0.2207 0.36914,-0.60547 -0.01,-0.0371 z m -27.50781,0.98437 -3.14648,0.76367 -0.36914,0.60547 0.008,0.0371 0.60547,0.36914 1.00195,-0.24414 3.11328,12.83789 -1.00195,0.24219 -0.36914,0.60547 0.008,0.0371 0.60547,0.36914 4.44336,-1.07813 0.36914,-0.60546 -0.008,-0.0371 -0.60547,-0.36719 -0.8086,0.19531 -0.68554,-2.82422 3.09375,2.24024 -0.31446,0.0762 -0.36718,0.60547 0.008,0.0371 0.60547,0.36914 4.20312,-1.01953 0.36914,-0.60547 -0.01,-0.0371 -0.60547,-0.36914 -0.50586,0.12304 -5.69531,-4.12695 2.30273,-2.95703 1.44922,-0.35156 0.36914,-0.60547 -0.008,-0.0371 -0.60547,-0.36914 -3.75977,0.91211 -0.36914,0.60547 0.01,0.0371 0.60547,0.36914 0.68945,-0.16797 -2.09375,2.67187 -1.92578,-7.9375 z m 33.91602,1.06836 -4.44336,1.07813 -0.36914,0.60547 0.01,0.0371 0.60352,0.36914 4.44336,-1.07813 0.36914,-0.60547 -0.008,-0.0371 z m -34.16602,0.0254 2.09766,8.6543 0.0332,0.23242 0.0273,0.0195 0.97071,4.00196 -0.68164,0.16601 -3.13086,-12.9082 z m 20.38672,0.74024 4.57227,5.52343 -0.15235,1.01368 -5.1914,-6.34961 z m 27.03516,0.57422 0.0137,0.0547 -0.0293,-0.0195 c 0.005,-0.0118 0.0104,-0.0234 0.0156,-0.0352 z m -34.51954,0.0137 c -0.88033,0.21344 -1.64682,0.60924 -2.26757,1.18359 -0.62288,0.56899 -1.06141,1.29157 -1.29883,2.12891 -0.23713,0.84633 -0.22456,1.77693 0.0156,2.76758 0.24071,0.99281 0.66417,1.83012 1.27735,2.47656 l 0.002,0.002 c 0.60041,0.62789 1.32615,1.06484 2.14648,1.28906 l 0.004,0.002 c 0.82281,0.21514 1.68727,0.21119 2.56641,-0.002 h 0.002 c 1.11617,-0.27061 2.00548,-0.80949 2.58203,-1.61523 0.55044,-0.76928 0.85723,-1.64997 0.9082,-2.59961 l -0.61914,-0.51367 -0.0371,0.01 -0.38281,0.46094 c -0.0381,0.72945 -0.26514,1.38565 -0.70117,2.00781 -0.41124,0.58681 -1.00976,0.97826 -1.88086,1.18946 -0.42321,0.10257 -0.74017,0.0746 -1.01367,-0.0469 -0.30482,-0.14503 -0.57263,-0.3632 -0.81641,-0.68164 -0.25059,-0.34088 -0.47008,-0.739 -0.65429,-1.19922 l -0.002,-0.006 c -0.18643,-0.48635 -0.33933,-0.97892 -0.46093,-1.48047 -0.006,-0.0233 -0.006,-0.047 -0.0117,-0.0703 l 5.65429,-1.37109 0.36914,-0.60547 c -0.17791,-0.73378 -0.49194,-1.40015 -0.93554,-1.98438 -0.45376,-0.60753 -1.06811,-1.05266 -1.80078,-1.31054 -5.7e-4,-2.1e-4 -0.001,2e-4 -0.002,0 -0.76931,-0.27605 -1.65839,-0.26987 -2.64258,-0.0312 z m 1.47266,0.24414 0.01,0.006 c -0.001,-7.2e-4 -0.003,7.1e-4 -0.004,0 -0.002,-0.001 -0.004,-0.004 -0.006,-0.006 z m 0.69922,0.73047 c 0.0355,0.0109 0.0986,-0.0123 0.13281,0 l 0.004,0.002 c 0.56516,0.19824 0.9953,0.51138 1.33398,0.96484 l 0.002,0.004 c 0.25735,0.33835 0.39457,0.74916 0.54296,1.1543 l -0.91015,0.2207 c -0.0706,-0.25677 -0.13134,-0.5068 -0.22852,-0.7832 -0.16024,-0.45859 -0.36286,-0.88608 -0.60742,-1.28125 -0.0707,-0.11853 -0.18807,-0.17567 -0.26953,-0.28125 z m -1.92578,0.0371 c 0.31165,-0.0756 0.50122,-0.0417 0.69336,0.082 l 0.0117,0.006 c 0.23606,0.14393 0.4462,0.35993 0.63281,0.67383 l 0.004,0.008 c 0.2051,0.33089 0.37747,0.69253 0.51562,1.08789 0.0825,0.23463 0.12912,0.4366 0.18945,0.65039 l -3.11718,0.75586 c -0.021,-0.14398 -0.0605,-0.2874 -0.0762,-0.43164 v -0.006 c -0.0475,-0.49867 -0.0371,-0.95647 0.0254,-1.37695 v -0.004 c 0.0588,-0.4095 0.18276,-0.72495 0.36329,-0.97461 h 0.002 c 0.16665,-0.23132 0.39137,-0.38233 0.75586,-0.4707 z m -2.11524,1.36914 c -0.0677,0.494 -0.082,1.01299 -0.0293,1.56054 l 0.002,0.006 c 0.0204,0.18912 0.0707,0.37591 0.0996,0.56446 l -0.28711,0.0703 -0.36914,0.60547 0.01,0.0371 0.60351,0.36914 0.22266,-0.0547 c 0.006,0.0233 0.006,0.047 0.0117,0.0703 0.13227,0.54558 0.29927,1.08143 0.50195,1.60938 l 0.002,0.008 c 0.20136,0.50451 0.45267,0.95021 0.74024,1.35352 -0.41797,-0.19023 -0.84434,-0.35802 -1.18555,-0.71485 -0.47524,-0.50101 -0.82114,-1.16293 -1.0293,-2.02148 -0.20868,-0.86072 -0.20859,-1.60591 -0.0254,-2.25977 0.13895,-0.48926 0.44064,-0.84039 0.73242,-1.20312 z m -36.43164,1.2207 -0.0371,0.008 -0.33398,0.27149 -0.50586,1.05468 c -0.22525,-0.11568 -0.45637,-0.2125 -0.69922,-0.28125 -0.0543,-0.0147 -0.0933,-0.0699 -0.14844,-0.082 -0.0169,-0.004 -0.0358,0.006 -0.0527,0.002 -0.10579,-0.0235 -0.19043,-0.10646 -0.29883,-0.1211 -0.62369,-0.0842 -1.27857,-0.038 -1.95898,0.12696 -0.75378,0.18274 -1.42798,0.51835 -1.99805,1 -0.57093,0.47499 -0.998,1.064 -1.25977,1.74609 v 0.002 c -0.26437,0.69408 -0.29827,1.44794 -0.11328,2.21094 0.18169,0.74939 0.49345,1.38512 0.95118,1.875 0.43307,0.46351 0.94931,0.83184 1.53515,1.0957 l 0.004,0.002 c 0.5584,0.24566 1.15143,0.43506 1.77539,0.57226 l 0.002,0.002 c 0.60357,0.12984 1.20181,0.2505 1.79492,0.36328 h 0.002 c 0.57523,0.10679 1.10645,0.24241 1.59375,0.40429 0.45859,0.15235 0.83585,0.36073 1.14453,0.625 0.2759,0.23622 0.4681,0.55768 0.58008,1.01953 0.14601,0.60461 0.13731,1.10775 0.004,1.53516 -0.13863,0.43337 -0.37578,0.78103 -0.74219,1.07813 -0.37018,0.30015 -0.84352,0.52739 -1.43945,0.67187 -0.54624,0.13241 -1.00709,0.14383 -1.43555,0.11328 -0.0653,-0.006 -0.15841,0.0208 -0.2207,0.0117 -0.31502,-0.0428 -0.57056,-0.1726 -0.83789,-0.28516 -0.17013,-0.0715 -0.35537,-0.12439 -0.50781,-0.2207 -0.33724,-0.2206 -0.64826,-0.47762 -0.91602,-0.8125 -0.30203,-0.38202 -0.56478,-0.81552 -0.78711,-1.30469 l -0.57422,-0.27929 -0.0371,0.008 -0.36915,0.60547 0.91993,3.79492 0.60547,0.36914 0.0371,-0.008 0.3418,-0.29102 0.4707,-1.10156 c 0.15624,0.0869 0.34462,0.1097 0.51172,0.17578 0.26792,0.10647 0.49325,0.28585 0.78711,0.34375 h 0.002 c 0.0579,0.0112 0.13437,-0.0185 0.19336,-0.01 0.0148,0.002 0.0262,0.0117 0.041,0.0137 h 0.002 c 0.22742,0.0292 0.49558,-0.0485 0.73633,-0.0547 0.46937,-0.006 0.90881,0.0535 1.43555,-0.0742 0.93119,-0.22577 1.72287,-0.60441 2.34961,-1.14648 l 0.002,-0.002 c 0.62488,-0.5445 1.06604,-1.21596 1.29492,-1.98242 v -0.002 c 0.22785,-0.77546 0.2271,-1.6141 0.0156,-2.48633 -0.19343,-0.7978 -0.50757,-1.4709 -0.96094,-1.99805 l -0.002,-0.002 c -0.43244,-0.50643 -0.94345,-0.91381 -1.52344,-1.20898 -0.55715,-0.28356 -1.15117,-0.50119 -1.77734,-0.6543 h 0.008 c -0.59436,-0.15426 -1.18848,-0.28527 -1.7793,-0.39453 l -0.008,-0.002 c -0.55824,-0.11158 -1.0755,-0.24093 -1.54883,-0.38868 -0.44461,-0.1446 -0.80774,-0.33614 -1.09961,-0.5664 -0.26047,-0.20981 -0.43253,-0.48174 -0.52929,-0.88086 -0.15323,-0.63201 -0.0794,-1.10214 0.20117,-1.53516 l 0.002,-0.004 c 0.26889,-0.42141 0.7531,-0.74369 1.56055,-0.93946 0.59084,-0.14324 1.1318,-0.15062 1.64258,-0.0352 0.0166,0.004 0.0304,0.0154 0.0469,0.0195 0.48532,0.11327 0.9243,0.34588 1.33594,0.74609 l 0.002,0.002 c 0.41852,0.40042 0.79343,0.98218 1.10547,1.76172 l 0.58398,0.30078 0.0371,-0.008 0.36914,-0.60547 -0.91992,-3.79492 z m 18.28711,1.28906 c -0.45261,0.10974 -0.88358,0.26646 -1.28906,0.47071 -0.001,6.6e-4 -0.003,0.001 -0.004,0.002 -10e-4,6.5e-4 -0.003,10e-4 -0.004,0.002 -0.40531,0.19819 -0.76627,0.43296 -1.07617,0.70703 -0.31408,0.27401 -0.56107,0.58944 -0.72266,0.94141 v 0.002 c -0.16628,0.36555 -0.20596,0.77771 -0.11133,1.16797 0.10341,0.42648 0.34461,0.80891 0.71875,1.01172 l 0.008,0.004 c 0.34491,0.17992 0.75206,0.2197 1.13477,0.12695 0.35766,-0.0867 0.67664,-0.29978 0.91602,-0.58789 0.30114,-0.35685 0.36588,-0.85835 0.25195,-1.32813 -0.10365,-0.42751 -0.39388,-0.80685 -0.79297,-0.98046 -0.0239,-0.011 -0.0519,0.002 -0.0762,-0.008 0.0211,-0.0117 0.0351,-0.0277 0.0566,-0.0391 0.28254,-0.14964 0.57392,-0.26198 0.8789,-0.33594 0.39423,-0.0956 0.59061,-0.0451 0.75782,0.0918 l 0.004,0.004 c 0.22891,0.18261 0.41925,0.44538 0.56641,0.82226 l 0.002,0.008 c 0.16794,0.41157 0.30259,0.82659 0.4043,1.2461 l 0.11719,0.48437 -0.66016,0.16016 c -1.36868,0.33184 -2.40909,0.82138 -3.09766,1.53711 -0.68401,0.70833 -0.93652,1.65254 -0.70312,2.61523 0.19716,0.81323 0.67454,1.46703 1.375,1.83008 l 0.006,0.002 c 0.7029,0.35212 1.5313,0.3981 2.41601,0.1836 0.7043,-0.17076 1.28508,-0.48795 1.67579,-0.97461 h 0.002 c 0.18162,-0.22733 0.20122,-0.54928 0.30664,-0.82422 0.0861,0.13573 0.11296,0.33069 0.23242,0.43555 l 0.008,0.006 c 0.29629,0.25087 0.66664,0.40005 1.05079,0.41601 0.32827,0.0195 0.66045,-0.0133 0.99218,-0.0937 0.54447,-0.132 1.0242,-0.41236 1.38867,-0.82031 l 0.004,-0.004 c 0.048,-0.0549 0.0466,-0.13368 0.0898,-0.1914 0.004,-0.005 0.01,-0.005 0.0137,-0.01 0.0579,-0.0742 0.0643,-0.18124 0.11328,-0.26172 0.18094,-0.3051 0.39065,-0.59952 0.44336,-0.95312 l -0.32617,-0.54492 -0.0312,-0.0117 -0.66407,0.38281 c -0.057,0.32116 -0.1685,0.5694 -0.32812,0.77344 l -0.002,0.006 c -0.16696,0.21856 -0.29926,0.29059 -0.35742,0.30468 -0.15569,0.0377 -0.119,0.0219 -0.10547,0.0293 -0.0625,-0.0758 -0.11771,-0.17138 -0.15429,-0.32227 l -1.16407,-4.79492 c -0.13139,-0.54194 -0.33272,-1.05081 -0.60351,-1.52148 -0.29668,-0.52933 -0.76703,-0.92927 -1.34961,-1.16016 h -0.002 c -0.63608,-0.25624 -1.40125,-0.22584 -2.3086,-0.006 z m 1.27539,0.46875 0.006,0.004 c -0.001,-8.3e-4 -0.003,8.3e-4 -0.004,0 -10e-4,-8.8e-4 -8.6e-4,-0.003 -0.002,-0.004 z m 0.66016,0.4668 0.004,0.002 c 0.39967,0.15816 0.65901,0.38567 0.8457,0.71875 l 0.004,0.004 c 0.22362,0.38769 0.3895,0.80791 0.5,1.26367 l 0.19531,0.80078 -0.39453,-0.23828 -0.375,0.0898 -0.11719,-0.48437 c -0.11326,-0.46715 -0.26208,-0.92815 -0.44727,-1.38281 -0.12215,-0.31284 -0.34736,-0.52309 -0.54101,-0.76563 0.0815,0.0167 0.26202,-0.0337 0.32617,-0.008 z m 8.71484,0.71484 5.10938,3.70313 -0.82227,0.19922 -4.68554,-3.39258 z m -17.77343,0.5 c -0.57165,-0.19547 -1.23899,-0.16242 -2.01368,0.0254 -0.79839,0.19358 -1.44311,0.53471 -1.875,1.0586 l -0.002,0.002 c -0.18929,0.23298 -0.23014,0.53752 -0.34961,0.80664 l -0.14062,-0.58008 -0.60547,-0.36914 -2.77735,0.67188 -0.36914,0.60742 0.01,0.0352 0.60547,0.36914 0.63281,-0.15235 1.81055,7.46875 -0.63282,0.15235 -0.36914,0.60547 0.01,0.0371 0.60352,0.36915 3.88867,-0.94336 0.36914,-0.60547 -0.01,-0.0371 -0.60547,-0.36914 -0.62304,0.15039 -0.87305,-3.60156 v -0.002 c -0.0951,-0.39244 -0.1811,-0.84469 -0.25391,-1.35351 v -0.006 c -0.0623,-0.48065 -0.061,-0.95277 0.004,-1.41992 v -0.002 c 0.0593,-0.44066 0.21343,-0.80969 0.46875,-1.14258 0.2291,-0.29298 0.59835,-0.52068 1.18164,-0.66211 0.21797,-0.0528 0.25526,-0.0369 0.36523,0.0801 l 0.006,0.008 c 0.15651,0.1609 0.31664,0.42776 0.45118,0.81445 0.14476,0.4161 0.27799,0.87602 0.40039,1.38086 l 1.25586,5.17969 -0.61329,0.14843 -0.36914,0.60547 0.008,0.0371 0.60547,0.36914 3.88867,-0.94336 0.36914,-0.60547 -0.01,-0.0371 -0.60547,-0.36914 -0.62304,0.15039 -1.30469,-5.38086 c -0.14021,-0.5783 -0.34578,-1.08999 -0.62305,-1.52929 -0.29568,-0.48354 -0.74498,-0.84031 -1.28515,-1.02149 z m 5.2832,0.24805 c 0.15961,-0.0387 0.28793,-0.0272 0.45508,0.0508 l 0.0137,0.008 c 0.12334,0.053 0.17219,0.0987 0.2207,0.29883 0.0655,0.27011 0.0307,0.3583 -0.043,0.44531 l -0.004,0.006 c -0.12366,0.15 -0.23872,0.2185 -0.38477,0.25391 -0.1834,0.0445 -0.29736,0.0272 -0.42969,-0.041 -0.0845,-0.0465 -0.14969,-0.13723 -0.20507,-0.33789 l 0.0215,-0.0351 c -0.0363,-0.14965 -0.0128,-0.27141 0.0371,-0.40821 0.10655,-0.15 0.19549,-0.21044 0.31836,-0.24023 z m -22.66797,0.20703 c -0.004,0.27925 -0.18553,0.5128 -0.11523,0.80274 0.13963,0.57593 0.43714,1.07309 0.875,1.42578 l 0.002,0.002 c 0.40145,0.31765 0.88036,0.56239 1.42383,0.73828 l 0.004,0.002 c 0.51394,0.16043 1.06817,0.29799 1.66016,0.41602 l 0.006,0.002 c 0.56941,0.10512 1.14236,0.23177 1.7168,0.38086 l 0.006,0.002 c 0.55458,0.1356 1.07418,0.32864 1.56054,0.57617 0.46271,0.23549 0.86453,0.55381 1.2168,0.96679 l 0.002,0.002 c 0.32785,0.38067 0.58261,0.89969 0.74805,1.58203 0.0679,0.27997 -0.0149,0.49557 0,0.75195 -0.1608,-0.56517 -0.42161,-1.07329 -0.83789,-1.42969 -0.41694,-0.35696 -0.91379,-0.62685 -1.47852,-0.81445 -0.53543,-0.17787 -1.11009,-0.32333 -1.72461,-0.4375 h -0.002 c -0.58382,-0.11102 -1.17294,-0.23147 -1.76758,-0.35937 h -0.002 c -0.56101,-0.12349 -1.08692,-0.29312 -1.58008,-0.50977 l -0.004,-0.002 c -0.46862,-0.21168 -0.86853,-0.49682 -1.21093,-0.86328 -0.31876,-0.34116 -0.55852,-0.80711 -0.70899,-1.42774 -0.14418,-0.59467 -0.11657,-1.11629 0.0742,-1.61719 0.0286,-0.0746 0.10351,-0.11837 0.13672,-0.18945 z m 16.55859,0.0469 0.006,0.006 c -9e-4,-9.6e-4 -0.003,9.5e-4 -0.004,0 -0.001,-0.001 -6.4e-4,-0.005 -0.002,-0.006 z m 0.50391,0.44726 h 0.004 c 0.33996,0.11403 0.56763,0.29786 0.75,0.59766 l 0.006,0.008 c 0.20899,0.33039 0.37633,0.73848 0.49609,1.23242 l 1.31445,5.41797 -0.70117,0.16992 -1.26562,-5.21484 c -0.12897,-0.53192 -0.27063,-1.02302 -0.42774,-1.47461 -0.10298,-0.296 -0.27066,-0.49752 -0.41797,-0.72852 0.06,0.0114 0.19273,-0.0248 0.24219,-0.008 z m 11.01953,1.00196 0.87891,3.61718 c 0.0411,0.16961 0.14303,0.3048 0.22461,0.45313 -0.0902,0.005 -0.1856,0.0309 -0.27344,0.0254 h -0.0117 c -0.16731,-0.007 -0.29461,-0.0566 -0.43945,-0.17774 -0.10218,-0.0908 -0.23294,-0.30319 -0.32422,-0.67968 l -0.41016,-1.69336 c -0.0197,-0.0949 -0.004,-0.17281 -0.0273,-0.26953 l -0.0449,-0.0273 -0.18555,-0.76367 0.37305,-0.0898 z m -15.93555,0.084 0.79102,3.25391 c 0.0472,0.24877 0.0861,0.52309 0.14063,0.74804 l 0.0391,-0.002 0.85937,3.54102 -0.68359,0.16601 -1.82813,-7.54101 z m 14.34766,0.63867 0.19336,0.79883 c 0.18229,0.75185 0.23346,1.35949 0.17773,1.80273 -0.0585,0.46567 -0.19306,0.78318 -0.36718,0.99219 -3e-4,3.6e-4 3e-4,0.002 0,0.002 -0.1917,0.222 -0.40093,0.34841 -0.67188,0.41407 -0.20348,0.0493 -0.29008,0.0269 -0.41601,-0.0684 -0.1747,-0.13768 -0.32537,-0.32287 -0.45118,-0.57813 l -0.002,-0.002 c -0.14189,-0.29212 -0.24343,-0.57298 -0.30859,-0.8418 -0.0667,-0.27515 -0.0875,-0.59118 -0.0547,-0.94922 v -0.002 c 0.0357,-0.32545 0.14511,-0.6108 0.3418,-0.88476 0.1659,-0.23186 0.43658,-0.41146 0.89843,-0.52344 z m 28.39844,1.04297 c 0.10195,-0.0247 0.19256,-0.0217 0.30273,0.008 0.11798,0.0371 0.21776,0.0907 0.3125,0.17383 0.0645,0.06 0.10185,0.14254 0.13672,0.23633 -0.0377,0.1216 -0.0693,0.295 -0.10937,0.38086 -0.0502,0.10753 -0.11908,0.17913 -0.3711,0.24023 -0.0829,0.0201 -0.17879,0.0255 -0.29883,0.006 -0.0887,-0.0145 -0.16015,-0.0463 -0.24609,-0.11719 l -0.01,-0.008 c -0.0404,-0.0319 -0.0888,-0.0905 -0.12696,-0.24804 -0.0319,-0.13138 -0.026,-0.22356 -0.004,-0.30665 0.0307,-0.0948 0.071,-0.16192 0.14062,-0.22656 0.0665,-0.0618 0.14701,-0.10802 0.27344,-0.13867 z m -31.17188,0.0918 c -0.027,0.11423 -0.11218,0.20828 -0.125,0.32617 v 0.008 c -0.0427,0.45403 -0.0192,0.88569 0.0781,1.28711 0.0842,0.34755 0.21262,0.695 0.38281,1.04492 v 0.002 c 0.0951,0.19358 0.2539,0.32342 0.38281,0.48437 -0.26706,-0.0231 -0.60187,0.0572 -0.81836,-0.0508 -0.44801,-0.23344 -0.71583,-0.57981 -0.85937,-1.17188 -0.16758,-0.69118 -0.0366,-1.18046 0.44922,-1.68359 0.0958,-0.0996 0.38547,-0.15215 0.50976,-0.24609 z m -21.84961,7.85742 c 0.009,0.008 0.0185,0.0153 0.0274,0.0234 l -0.0137,0.0293 z"
             id="path87" />
        </g>
      </g>
    </g>
  </g>
</svg>
