<?xml version="1.0" encoding="UTF-8" standalone="no"?>
<!-- Created with Inkscape (http://www.inkscape.org/) -->

<svg
   width="512.00037"
   height="513.4632"
   viewBox="0 0 135.46676 135.8538"
   version="1.1"
   id="svg1"
   inkscape:version="1.4.2 (ebf0e940, 2025-05-08)"
   sodipodi:docname="mvp-wireframe.svg"
   xmlns:inkscape="http://www.inkscape.org/namespaces/inkscape"
   xmlns:sodipodi="http://sodipodi.sourceforge.net/DTD/sodipodi-0.dtd"
   xmlns="http://www.w3.org/2000/svg"
   xmlns:svg="http://www.w3.org/2000/svg">
  <sodipodi:namedview
     id="namedview1"
     pagecolor="#ffffff"
     bordercolor="#000000"
     borderopacity="0.25"
     inkscape:showpageshadow="2"
     inkscape:pageopacity="0.0"
     inkscape:pagecheckerboard="false"
     inkscape:deskcolor="#d1d1d1"
     inkscape:document-units="px"
     inkscape:zoom="1.0913784"
     inkscape:cx="990.49056"
     inkscape:cy="675.29282"
     inkscape:window-width="3840"
     inkscape:window-height="2107"
     inkscape:window-x="1792"
     inkscape:window-y="25"
     inkscape:window-maximized="0"
     inkscape:current-layer="layer1">
    <inkscape:page
       x="0"
       y="0"
       width="135.46677"
       height="135.85381"
       id="page2"
       margin="0"
       bleed="0" />
  </sodipodi:namedview>
  <defs
     id="defs1" />
  <g
     inkscape:label="Layer 1"
     inkscape:groupmode="layer"
     id="layer1"
     transform="translate(-446.918,-66.579537)">
    <g
       id="g41"
       inkscape:export-filename="logo.svg"
       inkscape:export-xdpi="96"
       inkscape:export-ydpi="96">
      <g
         id="rect3"
         style="opacity:1">
        <path
           style="font-variation-settings:'opsz' 96;baseline-shift:baseline;display:inline;overflow:visible;vector-effect:none;fill:#182332;stroke-miterlimit:0;enable-background:accumulate;stop-color:#000000;stop-opacity:1"
           d="M 447.05008,66.904892 H 582.25215 V 202.10696 H 447.05008 Z"
           id="path45" />
        <path
           style="font-variation-settings:'opsz' 96;baseline-shift:baseline;display:inline;overflow:visible;vector-effect:none;fill:#080000;stroke-miterlimit:0;enable-background:accumulate;stop-color:#000000;stop-opacity:1"
           d="m 447.05078,66.773437 -0.13281,0.13086 V 202.10742 l 0.13281,0.13086 h 135.20117 l 0.13282,-0.13086 V 66.904297 l -0.13282,-0.13086 z m 0.13086,0.263672 h 134.9375 V 201.97461 h -134.9375 z"
           id="path46" />
      </g>
      <g
         id="path32"
         inkscape:transform-center-x="-0.12274087"
         inkscape:transform-center-y="-6.9168713"
         style="opacity:1"
         transform="matrix(1.4395987,-0.02052721,0.01934709,1.5274105,-176.88118,-204.60618)">
        <path
           style="font-variation-settings:'opsz' 96;baseline-shift:baseline;display:inline;overflow:visible;vector-effect:none;fill:#4f90d6;stroke-miterlimit:0;enable-background:accumulate;stop-color:#000000;stop-opacity:1"
           d="m 504.7695,272.4699 -56.73293,-1.08686 -16.49778,-54.29208 46.53675,-32.4675 45.25907,34.22607 z"
           id="path47" />
        <path
           style="font-variation-settings:'opsz' 96;baseline-shift:baseline;display:inline;overflow:visible;vector-effect:none;fill:#a8c8eb;stroke-miterlimit:0;enable-background:accumulate;stop-color:#000000;stop-opacity:1"
           d="m 477.61523,183.96484 -46.53515,32.4668 -0.3086,0.89258 16.4961,54.29297 0.7539,0.56836 56.73243,1.08789 0.77343,-0.54102 18.56641,-53.62109 -0.27539,-0.90235 -45.25781,-34.22656 z m 0.44141,1.65039 44.32813,33.52344 -18.18165,52.51758 -55.56835,-1.06445 -16.15821,-53.17578 z"
           id="path48" />
      </g>
      <g
         id="g39"
         transform="matrix(-1.2425138,0.88086746,0.88007162,1.2410316,1042.5221,-456.11001)"
         style="stroke:#d9d9d9;stroke-width:0.656925;stroke-opacity:1">
        <g
           id="g40"
           transform="matrix(0.7005184,-0.04518273,0.04490609,0.70234481,160.64698,-41.006375)"
           style="stroke:#d9d9d9;stroke-width:0.910016;stroke-dasharray:none;stroke-opacity:1">
          <g
             id="g37"
             transform="translate(17.10336,25.473089)"
             style="fill:none;fill-opacity:1;stroke:#d9d9d9;stroke-width:0.910016;stroke-dasharray:none;stroke-opacity:1">
            <path
               style="font-variation-settings:'opsz' 96;baseline-shift:baseline;display:inline;overflow:visible;opacity:1;vector-effect:none;fill:#d9d9d9;stroke:none;stroke-miterlimit:0;enable-background:accumulate;stop-color:#000000;stop-opacity:1"
               d="m 462.82422,212.98633 -0.28125,0.86523 9.98828,3.24219 6.41602,8.64844 0.74414,10.16406 -25.48243,3.23242 -0.39648,0.4668 0.13086,4.33984 0.47266,0.43946 28.52148,-1.04102 5.3418,9.73633 -8.18555,10.3789 -10.9375,-0.38671 -18.23242,-1.5918 -0.49414,0.44922 -0.0742,6.08593 0.41992,0.45899 23.44727,1.81836 0.0703,-0.90625 -23.02149,-1.78711 0.0625,-5.16992 17.75586,1.55078 0.0234,0.002 11.17774,0.39453 0.37304,-0.17383 8.51563,-10.79492 0.041,-0.50195 -5.62109,-10.24609 -0.41602,-0.23633 -28.34375,1.03515 -0.10547,-3.46875 25.49805,-3.23632 0.39649,-0.48438 -0.78516,-10.72656 -0.0879,-0.23633 -6.58008,-8.87109 -0.22461,-0.16211 z"
               id="path34" />
            <path
               style="font-variation-settings:'opsz' 96;baseline-shift:baseline;display:inline;overflow:visible;opacity:1;vector-effect:none;fill:#d9d9d9;stroke:none;stroke-miterlimit:0;enable-background:accumulate;stop-color:#000000;stop-opacity:1"
               d="m 473.91211,269.15625 -0.66797,0.61719 5.86719,6.33398 -2.50586,5.51172 -0.041,0.16016 -0.24609,3.85156 -1.10352,-3.31055 -0.041,-0.0898 -5.15039,-8.56836 -0.7793,0.46875 5.12305,8.52539 1.82617,5.47656 0.88476,-0.11523 0.39063,-6.09766 2.5957,-5.71094 -0.0801,-0.49804 z"
               id="path35" />
            <g
               id="g36"
               style="fill:none;fill-opacity:1;stroke:#d9d9d9;stroke-width:0.910016;stroke-dasharray:none;stroke-opacity:1">
              <path
                 style="font-variation-settings:'opsz' 96;baseline-shift:baseline;display:inline;overflow:visible;opacity:1;vector-effect:none;fill:#d9d9d9;stroke:none;stroke-miterlimit:0;enable-background:accumulate;stop-color:#000000;stop-opacity:1"
                 d="m 454.17383,216.67969 -0.33985,0.84375 15.14258,6.08203 1.20703,8.81445 c -6.09914,-0.46092 -12.17813,-0.46752 -17.92968,1.88281 l -0.0371,0.0176 -5.08399,2.61524 -0.24219,0.3457 -0.77539,5.83984 -1.46679,5.37696 0.33398,0.5625 c 9.25868,2.18356 18.66862,1.90288 28.09375,0.97265 l 7.09766,2.62305 -7.35742,5.27148 -10.20508,-1.0332 -16.03321,-2.49805 -0.52539,0.44141 -0.37304,18.4375 0.43359,0.46484 24.30859,1.15625 0.043,-0.9082 -23.86523,-1.13672 0.35351,-17.47461 15.5293,2.41797 0.0234,0.004 10.39062,1.05078 0.31055,-0.082 8.19336,-5.8711 -0.10547,-0.79687 -7.98633,-2.95117 -0.20312,-0.0254 c -9.26489,0.91981 -18.4505,1.17344 -27.44922,-0.86719 l 1.3457,-4.92383 0.0117,-0.0606 0.74805,-5.63476 4.84375,-2.49219 c 5.71378,-2.33267 11.82398,-2.30709 18.06445,-1.80664 l 0.48828,-0.51562 -1.3164,-9.60157 -0.28125,-0.35937 z"
                 id="path33" />
              <path
                 style="font-variation-settings:'opsz' 96;baseline-shift:baseline;display:inline;overflow:visible;opacity:1;vector-effect:none;fill:#d9d9d9;stroke:none;stroke-miterlimit:0;enable-background:accumulate;stop-color:#000000;stop-opacity:1"
                 d="m 469.99219,273.64453 -0.77735,0.47461 3.82618,6.26172 1.55468,3.00976 0.96875,2.94922 0.002,0.002 0.58789,1.7539 0.86328,-0.28906 -0.58789,-1.75391 -0.98047,-2.98046 -0.0274,-0.0664 -1.58007,-3.05664 -0.0156,-0.0293 z"
                 id="path36" />
            </g>
          </g>
          <path
             style="font-variation-settings:'opsz' 96;baseline-shift:baseline;display:inline;overflow:visible;opacity:1;vector-effect:none;fill:#d9d9d9;stroke:none;stroke-miterlimit:0;enable-background:accumulate;stop-color:#000000;stop-opacity:1"
             d="m 453.0625,214.18945 -5.66406,2.47071 0.0781,0.86132 0.1543,0.0352 0.0996,-0.42383 0.0332,0.36133 5.33789,-2.32812 5.25196,6.79687 -0.51954,8.88672 0.0488,0.23437 5.31641,10.36329 0.32226,0.24023 7.81641,1.43555 0.16406,-0.89453 -7.5957,-1.39649 -5.15625,-10.05273 0.52148,-8.93164 -0.0937,-0.30469 -5.57226,-7.21485 z"
             id="path37" />
          <path
             style="font-variation-settings:'opsz' 96;baseline-shift:baseline;display:inline;overflow:visible;opacity:1;vector-effect:none;fill:#d9d9d9;stroke:none;stroke-miterlimit:0;enable-background:accumulate;stop-color:#000000;stop-opacity:1"
             d="m 458.84375,208.67578 -4.32422,4.03711 -0.0937,0.53906 4.69922,9.17774 0.33008,0.24218 9.80664,1.63477 8.59765,7.6875 2.31055,7.90039 0.87305,-0.25391 -2.3457,-8.02539 -0.13282,-0.21289 -8.79492,-7.86132 -0.22851,-0.10938 -9.71094,-1.62109 -4.43946,-8.66602 4.07032,-3.79883 0.0137,0.008 0.0664,-0.10547 z"
             id="path39" />
        </g>
      </g>
      <g
         id="text28"
         style="opacity:1">
        <path
           style="font-size:19.05px;font-family:'Bodoni Moda';-inkscape-font-specification:'Bodoni Moda, @opsz=96';font-variation-settings:'opsz' 96;text-align:center;baseline-shift:baseline;text-anchor:middle;display:inline;overflow:visible;vector-effect:none;fill:#182332;stroke-miterlimit:0;enable-background:accumulate;stop-color:#000000;stop-opacity:1"
           d="m 463.15418,139.52084 q -1.28587,0 -2.16217,-0.40005 -0.86678,-0.40005 -1.42875,-1.08585 l -1.03823,1.39065 h -0.0381 v -3.90525 h 0.0381 q 0.16193,0.84773 0.4953,1.57163 0.33338,0.71437 0.86678,1.24777 0.54292,0.5334 1.30492,0.82868 0.77153,0.29527 1.80975,0.29527 1.00965,0 1.77165,-0.36195 0.762,-0.36195 1.19063,-1.0668 0.42862,-0.71437 0.42862,-1.7526 0,-0.8382 -0.4191,-1.41922 -0.4191,-0.58103 -1.1049,-1.00965 -0.6858,-0.42863 -1.51447,-0.8001 -0.81915,-0.37148 -1.64783,-0.77153 -0.81915,-0.40005 -1.50495,-0.92392 -0.6858,-0.5334 -1.1049,-1.27635 -0.4191,-0.74295 -0.4191,-1.80023 0,-1.04775 0.54293,-1.83832 0.55245,-0.8001 1.4478,-1.23825 0.89535,-0.44768 1.95262,-0.44768 0.97155,0 1.7526,0.3048 0.78105,0.3048 1.3335,0.9525 l 1.0287,-1.2573 h 0.0381 v 3.90525 h -0.0381 q -0.1905,-1.32397 -0.73342,-2.1717 -0.5334,-0.84772 -1.35255,-1.24777 -0.81915,-0.40958 -1.83833,-0.40958 -1.3716,0 -2.08597,0.6858 -0.71438,0.67628 -0.71438,1.80975 0,0.75248 0.40958,1.28588 0.40957,0.52387 1.07632,0.93345 0.66675,0.40005 1.46685,0.77152 0.80963,0.36195 1.60973,0.79058 0.80962,0.4191 1.47637,0.9906 0.66675,0.5715 1.07633,1.38112 0.40957,0.8001 0.40957,1.9431 0,1.23825 -0.5334,2.16218 -0.5334,0.9144 -1.524,1.42875 -0.98107,0.50482 -2.3241,0.50482 z m 8.59156,-9.04875 v 8.7249 h 1.143 v 0.0381 h -4.0005 v -0.0381 h 1.15253 v -8.6868 h -1.15253 v -0.0381 z m 5.81978,2.68605 v 6.03885 h 1.143 v 0.0381 h -4.0005 v -0.0381 h 1.13347 v -5.8293 q 0,-0.8001 -0.0667,-1.4859 -0.0667,-0.6858 -0.31433,-1.1049 -0.23812,-0.4191 -0.77152,-0.4191 -1.01918,0 -1.61925,0.47625 -0.59055,0.47625 -0.8763,1.20968 -0.28575,0.7239 -0.37148,1.51447 -0.0762,0.79058 -0.0762,1.42875 l -0.0381,0.0952 q 0,-0.67627 0.0762,-1.49542 0.0762,-0.82868 0.36195,-1.58115 0.29528,-0.75248 0.93345,-1.23825 0.6477,-0.48578 1.77165,-0.48578 1.11443,0 1.69545,0.37148 0.59055,0.37147 0.8001,1.0287 0.21908,0.6477 0.21908,1.47637 z m 9.72503,6.26745 q -0.44767,0 -0.84772,-0.12382 -0.40005,-0.1143 -0.65723,-0.46673 -0.24765,-0.35242 -0.24765,-1.0287 v -4.37197 q 0,-0.6858 -0.10477,-1.38113 -0.0953,-0.70485 -0.4572,-1.17157 -0.35243,-0.46673 -1.11443,-0.46673 -0.5334,0 -1.05727,0.13335 -0.52388,0.13335 -0.96203,0.381 -0.42862,0.23813 -0.69532,0.58103 -0.25718,0.33337 -0.25718,0.75247 h -0.019 q 0,-0.48577 0.31433,-0.762 0.32385,-0.28575 0.70485,-0.28575 0.40957,0 0.74295,0.2667 0.3429,0.25718 0.3429,0.74295 0,0.5715 -0.35243,0.82868 -0.3429,0.25717 -0.73342,0.25717 -0.43815,0 -0.74295,-0.2667 -0.29528,-0.2667 -0.29528,-0.78105 0,-0.44767 0.27623,-0.8001 0.28575,-0.36195 0.762,-0.6096 0.48577,-0.25717 1.09537,-0.39052 0.6096,-0.14288 1.2573,-0.14288 1.31445,0 1.95263,0.4572 0.6477,0.4572 0.84772,1.17158 0.20955,0.71437 0.20955,1.4859 v 4.93395 q 0,0.3429 0.13335,0.60007 0.14288,0.24765 0.55245,0.24765 0.33338,0 0.73343,-0.32385 0.40957,-0.32385 0.6477,-0.86677 l 0.0286,0.019 q -0.24765,0.6096 -0.8001,1.00012 -0.55245,0.381 -1.2573,0.381 z m -4.39102,0 q -1.23825,0 -1.9812,-0.62865 -0.73343,-0.63817 -0.73343,-1.72402 0,-1.27635 1.0668,-1.95263 1.07633,-0.6858 3.10515,-0.6858 h 2.06693 v 0.0381 h -2.06693 q -0.8382,0 -1.32397,0.4191 -0.47625,0.40958 -0.6858,0.9906 -0.20003,0.58103 -0.20003,1.1049 0,0.47625 0.1143,1.00013 0.1143,0.51435 0.40005,0.8763 0.28575,0.35242 0.78105,0.35242 0.5715,0 1.04775,-0.3429 0.47625,-0.35242 0.762,-1.1049 0.28575,-0.75247 0.28575,-1.97167 h 0.0381 q 0,1.08585 -0.2667,1.905 -0.2667,0.81915 -0.85725,1.27635 -0.58102,0.44767 -1.55257,0.44767 z m 6.98183,-0.1905 v -0.0381 h 1.53353 v -14.2113 h -1.53353 v -0.0381 h 3.2385 v 14.2494 h 1.3335 v 0.0381 z m 5.89598,0 v -0.0381 h 1.4097 l -4.21005,-4.93395 4.75297,-3.75285 h -2.15265 v -0.0381 h 3.86715 v 0.0381 h -1.66687 l -3.47663,2.76225 5.04825,5.92455 h 0.75248 v 0.0381 z m 9.12497,0.1905 q -1.24778,0 -2.25743,-0.54292 -1.00012,-0.55245 -1.59067,-1.57163 -0.59055,-1.0287 -0.59055,-2.45745 0,-1.42875 0.5715,-2.44792 0.58102,-1.0287 1.57162,-1.57163 0.9906,-0.55245 2.23838,-0.55245 1.41922,0 2.286,0.5715 0.86677,0.56198 1.2573,1.47638 0.40005,0.9144 0.40005,1.95262 h -7.0485 v -0.0381 h 5.0292 q 0.01,-0.56197 -0.0571,-1.22872 -0.0667,-0.67628 -0.2667,-1.28588 -0.1905,-0.61912 -0.58103,-1.00965 -0.381,-0.40005 -1.01917,-0.40005 -0.70485,0 -1.17158,0.40005 -0.4572,0.39053 -0.7239,1.05728 -0.2667,0.65722 -0.381,1.45732 -0.10477,0.8001 -0.10477,1.61925 0,0.80963 0.10477,1.61925 0.1143,0.8001 0.39053,1.45733 0.28575,0.6477 0.78105,1.04775 0.50482,0.39052 1.28587,0.39052 1.4859,0 2.4384,-0.8382 0.9525,-0.8382 1.30493,-2.0193 h 0.0381 q -0.37148,1.23825 -1.34303,2.07645 -0.97155,0.8382 -2.56222,0.8382 z m 7.68668,-8.9154 3.37185,6.91515 -0.88582,2.22885 -4.39103,-9.144 h -0.85725 v -0.0381 h 4.24815 v 0.0381 z m 7.49618,-0.0381 v 0.0381 h -1.27635 l -5.0673,12.4968 q -0.25718,0.58103 -0.52388,0.9144 -0.2667,0.33338 -0.80962,0.33338 -0.23813,0 -0.48578,-0.10478 -0.24765,-0.10477 -0.4191,-0.33337 -0.17145,-0.21908 -0.17145,-0.58103 0,-0.31432 0.13335,-0.55245 0.14288,-0.23812 0.381,-0.37147 0.23813,-0.13335 0.54293,-0.13335 0.28575,0 0.54292,0.14287 0.25718,0.1524 0.42863,0.40005 0.17145,0.25718 0.18097,0.59055 l 5.21018,-12.8016 h -1.62878 v -0.0381 z m 1.17157,3.5433 v -0.0381 h 4.572 v 0.0381 z m 12.97307,5.4102 q -1.93358,0 -3.3909,-0.94297 -1.45733,-0.9525 -2.27648,-2.60985 -0.80962,-1.65735 -0.80962,-3.78143 0,-2.12407 0.80962,-3.78142 0.81915,-1.65735 2.27648,-2.60033 1.45732,-0.9525 3.3909,-0.9525 0.96202,0 1.80975,0.3429 0.85725,0.3429 1.47637,0.9525 l 1.15253,-1.1049 h 0.0381 v 3.90525 h -0.0381 q 0,-1.16205 -0.6096,-2.06692 -0.6096,-0.90488 -1.58115,-1.41923 -0.97155,-0.51435 -2.0574,-0.51435 -1.23825,0 -2.10503,0.63818 -0.85725,0.62865 -1.38112,1.68592 -0.51435,1.04775 -0.75248,2.33363 -0.23812,1.27635 -0.23812,2.58127 0,1.2954 0.23812,2.58128 0.23813,1.28587 0.75248,2.34315 0.52387,1.04775 1.38112,1.68592 0.86678,0.62865 2.10503,0.62865 0.9906,0 1.80022,-0.31432 0.81915,-0.32385 1.4097,-0.88583 0.59055,-0.56197 0.90488,-1.27635 0.32385,-0.7239 0.32385,-1.524 h 0.0381 v 3.90525 h -0.0381 l -1.05728,-1.19062 q -0.61912,0.63817 -1.54305,1.00965 -0.9144,0.37147 -2.02882,0.37147 z m 10.71561,0 q -1.34302,0 -2.3241,-0.62865 -0.97155,-0.62865 -1.50495,-1.66687 -0.5334,-1.03823 -0.5334,-2.27648 0,-1.23825 0.5334,-2.27647 0.5334,-1.03823 1.50495,-1.66688 0.98108,-0.62865 2.3241,-0.62865 1.34303,0 2.3241,0.62865 0.98108,0.62865 1.50495,1.66688 0.5334,1.03822 0.5334,2.27647 0,1.23825 -0.5334,2.27648 -0.52387,1.03822 -1.50495,1.66687 -0.98107,0.62865 -2.3241,0.62865 z m 0,-0.0381 q 0.78105,0 1.24778,-0.44767 0.47625,-0.44768 0.71437,-1.143 0.23813,-0.70485 0.31433,-1.4859 0.0857,-0.79058 0.0857,-1.45733 0,-0.67627 -0.0857,-1.45732 -0.0762,-0.78105 -0.31433,-1.47638 -0.23812,-0.70485 -0.71437,-1.15252 -0.46673,-0.44768 -1.24778,-0.44768 -0.78105,0 -1.2573,0.44768 -0.46672,0.44767 -0.70485,1.15252 -0.23812,0.69533 -0.32385,1.47638 -0.0762,0.78105 -0.0762,1.45732 0,0.66675 0.0762,1.45733 0.0857,0.78105 0.32385,1.4859 0.23813,0.69532 0.70485,1.143 0.47625,0.44767 1.2573,0.44767 z m 10.19175,0.019 q -1.03822,0 -1.96215,-0.54292 -0.92392,-0.54293 -1.50495,-1.5621 -0.5715,-1.01918 -0.5715,-2.44793 0,-1.42875 0.5715,-2.44792 0.58103,-1.0287 1.50495,-1.57163 0.92393,-0.55245 1.96215,-0.55245 1.28588,0 2.04788,0.96203 0.762,0.9525 0.9144,2.7051 v -8.96303 h -1.143 v -0.0381 h 2.86702 v 14.2494 h 1.143 v 0.0381 h -2.86702 v -3.47662 q -0.1524,1.7526 -0.9144,2.7051 -0.762,0.94297 -2.04788,0.94297 z m 0.28575,-0.13335 q 0.74295,0 1.35255,-0.4953 0.6096,-0.4953 0.96203,-1.47637 0.36195,-0.98108 0.36195,-2.44793 0,-1.46685 -0.36195,-2.44792 -0.35243,-0.9906 -0.96203,-1.4859 -0.6096,-0.50483 -1.35255,-0.50483 -0.8001,0 -1.31445,0.58103 -0.51435,0.5715 -0.762,1.58115 -0.24765,1.00012 -0.24765,2.27647 0,1.27635 0.24765,2.27648 0.24765,1.00012 0.762,1.57162 0.51435,0.5715 1.31445,0.5715 z m 11.48715,0.1524 q -1.24777,0 -2.25742,-0.54292 -1.00013,-0.55245 -1.59068,-1.57163 -0.59055,-1.0287 -0.59055,-2.45745 0,-1.42875 0.5715,-2.44792 0.58103,-1.0287 1.57163,-1.57163 0.9906,-0.55245 2.23837,-0.55245 1.41923,0 2.286,0.5715 0.86678,0.56198 1.2573,1.47638 0.40005,0.9144 0.40005,1.95262 h -7.0485 v -0.0381 h 5.0292 q 0.01,-0.56197 -0.0571,-1.22872 -0.0667,-0.67628 -0.2667,-1.28588 -0.1905,-0.61912 -0.58102,-1.00965 -0.381,-0.40005 -1.01918,-0.40005 -0.70485,0 -1.17157,0.40005 -0.4572,0.39053 -0.7239,1.05728 -0.2667,0.65722 -0.381,1.45732 -0.10478,0.8001 -0.10478,1.61925 0,0.80963 0.10478,1.61925 0.1143,0.8001 0.39052,1.45733 0.28575,0.6477 0.78105,1.04775 0.50483,0.39052 1.28588,0.39052 1.4859,0 2.4384,-0.8382 0.9525,-0.8382 1.30492,-2.0193 h 0.0381 q -0.37147,1.23825 -1.34302,2.07645 -0.97155,0.8382 -2.56223,0.8382 z"
           id="path49" />
        <path
           style="font-size:19.05px;font-family:'Bodoni Moda';-inkscape-font-specification:'Bodoni Moda, @opsz=96';font-variation-settings:'opsz' 96;text-align:center;baseline-shift:baseline;text-anchor:middle;display:inline;overflow:visible;vector-effect:none;fill:#182332;stroke-miterlimit:0;enable-background:accumulate;stop-color:#000000;stop-opacity:1"
           d="m 462.62109,124.625 c -0.72351,0 -1.39619,0.15317 -2.01172,0.46094 -0.6158,0.30135 -1.11717,0.72964 -1.49804,1.28125 -0.37739,0.54953 -0.56641,1.19271 -0.56641,1.91406 0,0.72233 0.14295,1.34654 0.43555,1.86523 0.28791,0.5104 0.67024,0.95055 1.14062,1.31641 0.46449,0.35481 0.97387,0.6672 1.52735,0.9375 0.55338,0.26715 1.1033,0.52534 1.65039,0.77344 h 0.002 c 0.54755,0.24545 1.04659,0.50885 1.49805,0.79101 0.44469,0.27793 0.79996,0.60446 1.06836,0.97657 0.26174,0.36286 0.39258,0.80504 0.39258,1.34179 0,0.67395 -0.13701,1.2316 -0.40821,1.6836 -0.27289,0.44875 -0.64814,0.78448 -1.13476,1.01562 -0.48755,0.23159 -1.05756,0.34961 -1.71485,0.34961 -0.51309,0 -0.92192,-0.1081 -1.33008,-0.2168 -0.13871,-0.0391 -0.32737,-0.0332 -0.45312,-0.084 -0.30793,-0.12156 -0.54055,-0.32077 -0.79102,-0.50195 -0.18038,-0.1305 -0.37809,-0.24502 -0.52929,-0.40235 -0.29886,-0.32056 -0.56299,-0.67275 -0.75782,-1.08984 v -0.002 c -0.21706,-0.47173 -0.38033,-0.98417 -0.48632,-1.53907 l -0.12891,-0.10742 h -0.0391 l -0.13086,0.13086 v 3.90625 l 0.13086,0.13281 h 0.0391 l 0.10547,-0.0547 0.96094,-1.28516 c 0.03,0.0336 0.0783,0.0495 0.10937,0.082 0.0364,0.0392 0.054,0.095 0.0918,0.13281 h 0.002 c 0.13646,0.13407 0.33387,0.2003 0.49024,0.3125 0.22266,0.16003 0.3901,0.37311 0.65234,0.49414 0.0491,0.0224 0.12879,0.0126 0.17969,0.0332 0.0106,0.004 0.0167,0.0135 0.0273,0.0176 0.16135,0.0617 0.38531,0.049 0.5625,0.0918 0.45619,0.11705 0.87861,0.26953 1.44727,0.26953 0.91193,0 1.70888,-0.17174 2.38476,-0.51953 0.68024,-0.3532 1.21001,-0.84745 1.57813,-1.47851 0.36839,-0.63812 0.55078,-1.38402 0.55078,-2.22852 0,-0.7778 -0.13914,-1.44776 -0.42383,-2.00391 -0.28045,-0.55436 -0.64965,-1.02949 -1.10742,-1.42187 -0.45178,-0.38724 -0.95258,-0.72226 -1.5,-1.00586 l -0.002,-0.002 c -0.53483,-0.28645 -1.07387,-0.5509 -1.61524,-0.79297 h -0.002 c -0.52847,-0.24542 -1.01203,-0.50026 -1.45117,-0.76367 h -0.002 c -0.43271,-0.266 -0.77744,-0.56772 -1.03906,-0.90235 -0.25475,-0.33176 -0.38281,-0.72742 -0.38281,-1.20507 0,-0.72786 0.22437,-1.28741 0.67383,-1.7129 0.44573,-0.4279 1.10179,-0.65039 1.99414,-0.65039 0.65227,0 1.23314,0.13484 1.7539,0.39063 0.0349,0.0174 0.0597,0.0498 0.0937,0.0684 0.48719,0.25615 0.90585,0.6177 1.23242,1.13672 v 0.002 c 0.34887,0.54473 0.58981,1.25009 0.71485,2.11914 l 0.13086,0.11328 h 0.0371 l 0.13281,-0.13281 v -3.9043 l -0.13281,-0.13281 h -0.0371 l -0.10352,0.0488 -0.95312,1.16406 c -0.25134,-0.27007 -0.56142,-0.4515 -0.87696,-0.62695 -0.0369,-0.0199 -0.0559,-0.0674 -0.0937,-0.0859 -0.0117,-0.006 -0.0273,-0.004 -0.0391,-0.01 -0.0917,-0.0454 -0.15147,-0.13809 -0.24805,-0.17578 -0.538,-0.20995 -1.13924,-0.31445 -1.80078,-0.31445 z m 71.60938,0 c -1.30982,0 -2.4694,0.32395 -3.46289,0.97266 -0.99174,0.64171 -1.76873,1.53039 -2.32422,2.65429 -0.54953,1.12493 -0.82227,2.40699 -0.82227,3.83985 0,1.43286 0.27274,2.71491 0.82227,3.83984 0.55545,1.12381 1.3308,2.0141 2.32226,2.66211 h 0.002 c 0.99395,0.64314 2.15233,0.96484 3.46289,0.96484 0.75764,0 1.45116,-0.12811 2.07812,-0.38281 v 0.002 c 0.58346,-0.23458 1.05959,-0.56896 1.46875,-0.96289 l 0.98243,1.10743 0.0996,0.0449 h 0.0371 l 0.13282,-0.13282 v -3.90429 l -0.13282,-0.13281 h -0.0371 l -0.13281,0.13281 c 0,0.51555 -0.10402,1.00469 -0.3125,1.4707 -0.2024,0.46001 -0.49309,0.87095 -0.875,1.23438 -0.38076,0.36234 -0.83531,0.64714 -1.36719,0.85742 -0.52277,0.20296 -1.10554,0.30469 -1.75195,0.30469 -0.80311,0 -1.47373,-0.202 -2.02734,-0.60352 -0.55304,-0.41225 -0.99915,-0.95531 -1.33985,-1.63672 -0.33718,-0.6931 -0.5834,-1.46173 -0.74023,-2.30859 -0.1573,-0.84944 -0.23633,-1.70115 -0.23633,-2.55664 0,-0.8619 0.0791,-1.71373 0.23633,-2.55664 v -0.002 c 0.15682,-0.84681 0.40321,-1.61229 0.74023,-2.29882 0.34114,-0.68848 0.78651,-1.23094 1.33985,-1.63672 h 0.002 c 0.55363,-0.40762 1.22262,-0.61328 2.02539,-0.61328 0.69201,0 1.34399,0.16921 1.96485,0.49218 0.0293,0.0154 0.0532,0.0368 0.082,0.0527 0.60108,0.33016 1.10072,0.76348 1.48242,1.33008 0.39174,0.58148 0.58789,1.24257 0.58789,1.99414 l 0.13086,0.13085 h 0.0391 l 0.13086,-0.13085 v -3.90625 l -0.13086,-0.13282 h -0.0391 l -0.0918,0.0371 -1.07812,1.03516 c -0.25546,-0.23675 -0.57811,-0.39827 -0.88868,-0.57227 -0.0285,-0.0159 -0.0413,-0.0491 -0.0703,-0.0644 -0.0141,-0.007 -0.0307,-0.004 -0.0449,-0.0117 -0.14474,-0.0755 -0.2484,-0.1993 -0.4043,-0.26172 h -0.002 c -0.58077,-0.23464 -1.20102,-0.35156 -1.85742,-0.35156 z m -44.34961,0.18945 -0.13086,0.13282 v 0.0391 l 0.13086,0.13086 h 1.40234 v 13.94726 h -1.40234 l -0.13086,0.13282 v 0.0371 l 0.13086,0.13282 h 4.57226 l 0.13282,-0.13282 v -0.0371 l -0.13282,-0.13282 h -1.20117 v -4.27539 l 3.64649,4.27539 h -1.1211 l -0.13281,0.13282 v 0.0371 l 0.13281,0.13282 h 4.32422 l 0.13281,-0.13282 v -0.0371 l -0.13281,-0.13282 h -0.6914 l -4.91993,-5.77343 3.33399,-2.64844 h 1.62109 l 0.13086,-0.13281 v -0.0371 l -0.13086,-0.13282 h -3.86719 l -0.13281,0.13282 v 0.0371 l 0.13281,0.13281 h 1.77149 l -4.09766,3.23437 v -8.92968 l -0.13281,-0.13282 z m 67.07617,0 -0.13281,0.13282 v 0.0391 l 0.13281,0.13086 h 1.00977 v 7.95117 c -0.0501,-0.21639 -0.035,-0.51585 -0.10547,-0.70703 v -0.002 c -0.0829,-0.23277 -0.24083,-0.33642 -0.34571,-0.53125 -0.10192,-0.18949 -0.0995,-0.50699 -0.22656,-0.66601 -0.12104,-0.15281 -0.28827,-0.22715 -0.42969,-0.3457 -0.47837,-0.40104 -1.03553,-0.66797 -1.72265,-0.66797 -0.71561,0 -1.39461,0.19276 -2.0293,0.57226 -0.63697,0.37431 -1.15551,0.91588 -1.55273,1.61914 v 0.002 c -0.3939,0.70245 -0.58789,1.54158 -0.58789,2.51172 0,0.97013 0.19399,1.80926 0.58789,2.51171 v 0.002 c 0.39729,0.69687 0.91606,1.23719 1.55273,1.61133 0.63462,0.37291 1.31409,0.56054 2.0293,0.56054 0.88959,0 1.61952,-0.33524 2.15039,-0.99219 h 0.002 c 0.12894,-0.16117 0.12545,-0.48327 0.22852,-0.67578 0.10393,-0.19217 0.26145,-0.29458 0.34375,-0.52343 v -0.002 c 0.0705,-0.19118 0.0553,-0.49064 0.10547,-0.70703 v 2.5957 l 0.13281,0.13282 h 2.86719 l 0.13281,-0.13282 v -0.0371 l -0.13281,-0.13282 h -1.01172 v -14.11718 l -0.13086,-0.13282 z m -23.36719,0.15821 c -0.47017,0.10415 -0.98028,0.1373 -1.35351,0.41211 -0.58966,0.43241 -1.06256,1.0112 -1.41992,1.73242 h -0.002 c -0.34877,0.71047 -0.60298,1.50144 -0.76367,2.36914 -0.16024,0.85889 -0.24023,1.72747 -0.24023,2.60547 0,0.8717 0.08,1.74039 0.24023,2.60547 0.16068,0.86763 0.41506,1.66035 0.76367,2.37695 h 0.002 c 0.35735,0.71471 0.83096,1.29593 1.41992,1.73437 h 0.002 c 0.36655,0.26585 0.86824,0.29478 1.32813,0.39844 -0.98057,-0.0933 -1.88264,-0.33698 -2.6543,-0.83594 -0.95164,-0.62198 -1.69372,-1.47065 -2.23047,-2.55664 -0.52996,-1.08487 -0.79687,-2.32341 -0.79687,-3.72265 0,-1.39854 0.26744,-2.63818 0.79687,-3.72266 v -0.002 c 0.53665,-1.08522 1.27756,-1.93155 2.22852,-2.54688 h 0.002 c 0.77827,-0.50867 1.68699,-0.75598 2.67773,-0.84765 z m -42.04297,0.10742 h 1.44141 v 9.00586 l -0.0937,0.0742 -0.0176,0.18945 0.11133,0.13086 v 4.62305 h -1.44141 z m 66.68555,0 h 1.45899 v 14.02344 h -1.45899 v -3.34571 l -0.13281,-0.006 c 0.0318,-0.3152 0.13281,-0.54231 0.13281,-0.89843 0,-0.35613 -0.10104,-0.58324 -0.13281,-0.89844 l 0.13281,-0.006 z m -91.5918,0.002 v 2.89258 c -0.14104,-0.56203 -0.26502,-1.14509 -0.52734,-1.55469 -0.0912,-0.14492 -0.24569,-0.19575 -0.34961,-0.32226 h 0.0449 z m -5.23046,0.084 c -0.23718,0.11025 -0.59479,0.0847 -0.77539,0.25781 -0.50305,0.47622 -0.75586,1.12086 -0.75586,1.9043 0,0.52565 0.14614,0.98775 0.4375,1.36718 0.28419,0.36351 0.65568,0.68495 1.11132,0.96485 l 0.002,0.002 c 0.44903,0.26942 0.94139,0.52797 1.47851,0.77734 l 0.002,0.002 c 0.53681,0.23998 1.07087,0.50085 1.60156,0.78515 v 0.002 c 0.53111,0.27493 1.01463,0.59847 1.45117,0.97265 0.43123,0.36962 0.77926,0.81471 1.04492,1.33985 v 0.002 c 0.26141,0.51065 0.39649,1.13661 0.39649,1.88281 0,0.80651 -0.17282,1.50191 -0.51563,2.0957 -0.34308,0.58814 -0.83014,1.04436 -1.4707,1.37696 -0.084,0.0432 -0.21256,0.0269 -0.30078,0.0644 0.36772,-0.23702 0.72922,-0.48155 0.95898,-0.85937 h 0.002 c 0.3003,-0.5005 0.44727,-1.10996 0.44727,-1.82032 0,-0.58085 -0.14825,-1.08622 -0.44531,-1.49804 -0.2904,-0.40261 -0.67091,-0.74941 -1.14063,-1.04297 -0.46294,-0.28934 -0.9739,-0.55875 -1.53125,-0.8086 -0.54511,-0.2472 -1.09301,-0.50523 -1.64453,-0.77148 -0.53789,-0.26269 -1.03111,-0.56518 -1.48047,-0.9082 l -0.002,-0.002 c -0.44297,-0.34498 -0.79988,-0.75693 -1.07031,-1.23633 -0.26621,-0.47191 -0.40039,-1.047 -0.40039,-1.73437 0,-0.67565 0.17301,-1.25911 0.51953,-1.76367 0.35573,-0.5152 0.81849,-0.91051 1.39648,-1.19336 v -0.002 c 0.20864,-0.10433 0.46144,-0.0896 0.6836,-0.15625 z m 77.16406,0.0547 v 2.86719 c -0.0969,-0.47469 -0.1358,-0.97355 -0.40625,-1.375 -0.16138,-0.23955 -0.43007,-0.36439 -0.62891,-0.56445 h 0.0684 z m -63.72266,4.92774 c -0.76836,0 -1.39038,0.16778 -1.85156,0.51367 -0.44382,0.33783 -0.77141,0.77211 -0.97656,1.29492 l -0.002,0.002 c -0.0752,0.19792 -0.0887,0.41746 -0.14257,0.62305 v -2.10937 l -0.13282,-0.13282 h -2.85742 l -0.13281,0.13282 v 0.0371 l 0.13281,0.13281 h 1.01953 v 8.42187 h -1.01953 l -0.13281,0.13282 v 0.0371 l 0.13281,0.13282 h 4 l 0.13281,-0.13282 v -0.0371 l -0.13281,-0.13282 h -1.00976 v -4.07812 c 0,-0.41961 0.0239,-0.89126 0.0742,-1.41406 v -0.002 c 0.056,-0.51499 0.1774,-1.0076 0.36329,-1.47851 0.18282,-0.46926 0.45995,-0.85109 0.83593,-1.1543 0.37148,-0.29483 0.87827,-0.44727 1.53711,-0.44727 0.32096,0 0.51847,0.10906 0.65625,0.35157 v 0.002 c 0.15166,0.25667 0.25369,0.6067 0.29688,1.05078 0.044,0.45227 0.0664,0.94293 0.0664,1.47266 v 5.69726 h -1 l -0.13281,0.13282 v 0.0371 l 0.13281,0.13282 h 4 l 0.13086,-0.13282 v -0.0371 l -0.13086,-0.13282 h -1.01171 v -5.90625 c 0,-0.56339 -0.0735,-1.06997 -0.22461,-1.51758 v -0.002 c -0.14859,-0.46483 -0.43844,-0.83533 -0.85547,-1.09765 -0.41969,-0.26834 -1.00797,-0.39258 -1.76563,-0.39258 z m 29.99414,0 c -0.85137,0 -1.6217,0.1905 -2.30273,0.57031 -0.68172,0.37364 -1.22477,0.91594 -1.62305,1.62109 v 0.002 c -0.3939,0.70245 -0.58789,1.54158 -0.58789,2.51172 0,0.97072 0.20056,1.8147 0.60742,2.52343 0.40475,0.69851 0.95339,1.24148 1.64063,1.6211 l 0.002,0.002 c 0.69312,0.37271 1.46927,0.55859 2.32031,0.55859 1.08369,0 1.9737,-0.28896 2.64844,-0.87109 0.66578,-0.5744 1.1284,-1.29064 1.38281,-2.13867 l -0.12695,-0.16992 h -0.0371 l -0.12695,0.0937 c -0.22807,0.76432 -0.64769,1.41519 -1.26563,1.95898 -0.60939,0.53626 -1.38583,0.80469 -2.35156,0.80469 -0.49695,0 -0.89122,-0.12281 -1.20117,-0.36133 -3.9e-4,-3.2e-4 3.9e-4,-0.002 0,-0.002 -0.31148,-0.25191 -0.55937,-0.58077 -0.74219,-0.99414 -0.17925,-0.42649 -0.308,-0.90018 -0.38281,-1.42383 -0.0691,-0.53418 -0.10352,-1.06752 -0.10352,-1.60156 0,-0.14832 0.0241,-0.29211 0.0293,-0.43946 h 6.16406 l 0.13086,-0.13281 c 0,-0.70914 -0.13609,-1.37746 -0.41015,-2.00391 -0.2704,-0.6331 -0.70893,-1.14762 -1.30665,-1.53515 -0.60555,-0.39927 -1.39351,-0.59375 -2.35742,-0.59375 z m 40.09961,0 c -0.91599,0 -1.71739,0.21649 -2.39453,0.65039 h -0.002 c -0.66632,0.43114 -1.18522,1.00721 -1.55078,1.71875 -0.36537,0.71116 -0.54688,1.49144 -0.54688,2.33594 0,0.84449 0.18151,1.62672 0.54688,2.33789 0.36556,0.71153 0.88446,1.28565 1.55078,1.71679 h 0.002 c 0.67714,0.4339 1.47854,0.65039 2.39453,0.65039 0.916,0 1.71935,-0.21649 2.39649,-0.65039 0.67248,-0.4309 1.19143,-1.0052 1.55078,-1.71679 v -0.002 c 0.36479,-0.71071 0.54687,-1.49211 0.54687,-2.33593 0,-0.8445 -0.1815,-1.62478 -0.54687,-2.33594 -0.35937,-0.71222 -0.87788,-1.28757 -1.55078,-1.71875 -0.67714,-0.4339 -1.48049,-0.65039 -2.39649,-0.65039 z m 21.90821,0 c -0.85138,0 -1.6217,0.1905 -2.30274,0.57031 -0.68172,0.37364 -1.22476,0.91594 -1.62305,1.62109 v 0.002 c -0.39389,0.70245 -0.58789,1.54158 -0.58789,2.51172 0,0.97072 0.20056,1.8147 0.60743,2.52343 0.40474,0.69852 0.95337,1.24148 1.64062,1.6211 l 0.002,0.002 c 0.69312,0.37271 1.46928,0.55859 2.32032,0.55859 1.08369,0 1.9737,-0.28896 2.64843,-0.87109 0.66579,-0.5744 1.12841,-1.29064 1.38282,-2.13867 l -0.12696,-0.16992 h -0.0371 l -0.12695,0.0937 c -0.22806,0.76432 -0.64768,1.41519 -1.26562,1.95898 -0.60939,0.53626 -1.38584,0.80469 -2.35157,0.80469 -0.49694,0 -0.89121,-0.12281 -1.20117,-0.36133 -3.9e-4,-3.2e-4 3.9e-4,-0.002 0,-0.002 -0.31148,-0.25191 -0.55937,-0.58077 -0.74219,-0.99414 -0.17901,-0.42594 -0.30796,-0.90098 -0.38281,-1.42383 v -0.002 c -0.069,-0.53353 -0.10351,-1.06621 -0.10351,-1.5996 0,-0.14832 0.0241,-0.29211 0.0293,-0.43946 h 6.16406 l 0.13086,-0.13281 c 0,-0.70914 -0.13608,-1.37746 -0.41015,-2.00391 -0.27039,-0.63311 -0.70892,-1.14762 -1.30664,-1.53515 -0.60555,-0.39927 -1.39351,-0.59375 -2.35742,-0.59375 z m -82.61133,0.0391 c -0.44153,0 -0.87058,0.0489 -1.28711,0.14648 -0.41582,0.0911 -0.79176,0.22489 -1.12696,0.40235 -0.33129,0.17227 -0.60113,0.38669 -0.80468,0.64453 -0.20093,0.25636 -0.30469,0.55716 -0.30469,0.88281 0,0.36822 0.1116,0.67275 0.33984,0.87891 h 0.002 c 0.22684,0.19848 0.51113,0.30078 0.83007,0.30078 0.28877,0 0.56308,-0.0981 0.81055,-0.2832 0.27265,-0.19896 0.40625,-0.52736 0.40625,-0.93555 0,-0.35332 -0.13437,-0.65022 -0.39258,-0.8457 -0.24289,-0.19431 -0.52245,-0.29688 -0.82422,-0.29688 -0.0206,0 -0.0362,0.0223 -0.0566,0.0234 0.0288,-0.0175 0.0422,-0.0438 0.0723,-0.0606 h 0.002 c 0.2813,-0.15899 0.58891,-0.28289 0.92774,-0.36914 0.33884,-0.0863 0.68081,-0.12891 1.02539,-0.12891 0.48099,1e-5 0.80244,0.13951 1.00976,0.41407 v 0.002 c 0.22495,0.29011 0.37057,0.65571 0.43164,1.10742 v 0.002 c 0.0689,0.45721 0.10352,0.91086 0.10352,1.36132 v 0.86914 h -1.04883 c -1.36665,0 -2.42653,0.22821 -3.17578,0.70508 -0.74299,0.47101 -1.12891,1.1767 -1.12891,2.06446 0,0.75368 0.26232,1.37438 0.7793,1.82421 v 0.002 c 0.52297,0.44251 1.22047,0.66015 2.06836,0.66015 0.66802,0 1.21723,-0.15635 1.63281,-0.47656 0.40292,-0.31193 0.68725,-0.75577 0.87305,-1.29687 v 0.0215 c 0,0.467 0.0835,0.836 0.27148,1.10352 l 0.002,0.002 c 0.18612,0.25505 0.43176,0.43131 0.72461,0.51562 0.28001,0.0867 0.57607,0.13086 0.88672,0.13086 l 0.0703,-0.0215 c 0.46312,-0.0136 0.89237,-0.12809 1.26172,-0.38281 l 0.002,-0.002 c 0.0567,-0.0401 0.0727,-0.11069 0.125,-0.15429 10e-4,-0.001 0.003,-8.5e-4 0.004,-0.002 l 0.002,-0.002 c 0.0252,-0.02 0.0343,-0.0589 0.0586,-0.0801 0.26421,-0.24041 0.52111,-0.48765 0.65625,-0.82031 l -0.0488,-0.16016 -0.0293,-0.0176 -0.19336,0.0566 c -0.14522,0.33109 -0.34391,0.58475 -0.58399,0.7832 -0.0111,0.01 -0.016,0.0237 -0.0273,0.0332 -0.25273,0.20459 -0.47097,0.29492 -0.65039,0.29492 -0.24506,0 -0.3674,-0.0632 -0.43555,-0.17968 -0.0767,-0.14939 -0.11718,-0.32533 -0.11718,-0.53516 v -4.93555 c 0,-0.52633 -0.0715,-1.03289 -0.21485,-1.52148 -0.14122,-0.50438 -0.44613,-0.92249 -0.89844,-1.24219 -0.4604,-0.32984 -1.13765,-0.48242 -2.02929,-0.48242 z m 25.58398,0.15234 -0.13086,0.13282 v 0.0371 l 0.13086,0.13281 h 0.77539 l 4.30469,8.96679 -1.34961,3.31641 c -0.0325,-0.0911 -0.032,-0.19644 -0.0859,-0.27734 l -0.002,-0.002 c -0.12469,-0.18011 -0.28135,-0.3284 -0.46875,-0.43945 l -0.004,-0.002 c -0.18963,-0.10535 -0.39487,-0.15821 -0.60742,-0.15821 -0.22249,0 -0.42767,0.0478 -0.60742,0.14844 -0.17819,0.0998 -0.32336,0.24272 -0.42969,0.41992 l -0.002,0.004 c -0.10102,0.1804 -0.15039,0.38893 -0.15039,0.61719 0,0.26219 0.0631,0.48821 0.19922,0.66211 0.12654,0.16796 0.28669,0.29437 0.47265,0.37304 0.17912,0.0758 0.35896,0.11524 0.53711,0.11524 0.38903,0 0.70696,-0.12637 0.91211,-0.38281 0.18827,-0.23533 0.36846,-0.5491 0.54297,-0.94336 v -0.004 l 5.03516,-12.41406 h 1.1875 l 0.13086,-0.13281 v -0.0371 l -0.13086,-0.13282 h -2.96289 l -0.13282,0.13282 v 0.0371 l 0.13282,0.13281 h 1.43164 l -2.61719,6.43164 -3.13867,-6.43164 h 1.27539 l 0.13281,-0.13281 v -0.0371 l -0.13281,-0.13282 z m 45.28516,0.082 c -0.41056,0.0728 -0.81692,0.16478 -1.10156,0.48633 -0.36176,0.40195 -0.62225,0.94865 -0.79102,1.63672 -0.16826,0.67949 -0.25195,1.44914 -0.25195,2.3086 0,0.85945 0.0837,1.62909 0.25195,2.30859 0.16882,0.68178 0.42951,1.22723 0.79102,1.62891 0.2788,0.30978 0.6789,0.39353 1.07812,0.46875 -0.6498,-0.009 -1.26382,-0.16784 -1.8457,-0.50977 -0.59522,-0.34977 -1.07962,-0.85165 -1.45703,-1.51367 -0.36811,-0.65645 -0.55469,-1.44795 -0.55469,-2.38281 0,-0.93487 0.18659,-1.72637 0.55469,-2.38282 0.37748,-0.66833 0.8621,-1.17383 1.45703,-1.52343 0.58916,-0.35229 1.21055,-0.52069 1.86914,-0.5254 z m -50.26563,0.0293 c 0.39781,0 0.69527,0.11939 0.92383,0.35938 l 0.002,0.002 c 0.24325,0.24324 0.42505,0.55915 0.54688,0.95508 l 0.002,0.004 c 0.13018,0.39678 0.21619,0.814 0.25977,1.25586 v 0.002 c 0.0395,0.39268 0.0518,0.74639 0.0508,1.08203 h -3.98633 c 0.0172,-0.28613 0.0178,-0.57495 0.0547,-0.85742 v -0.002 c 0.0749,-0.52336 0.20002,-0.99941 0.37305,-1.42578 0.17142,-0.42856 0.40131,-0.7614 0.6875,-1.00586 0.28616,-0.24528 0.64106,-0.36914 1.08593,-0.36914 z m 40.09961,0 c 0.49543,0 0.8717,0.13918 1.15625,0.41211 h 0.002 c 0.30027,0.28225 0.52678,0.647 0.67968,1.09961 0.15524,0.45328 0.25677,0.93409 0.30664,1.44531 v 0.002 c 0.0567,0.51658 0.0859,0.9981 0.0859,1.44336 0,0.43883 -0.0292,0.92026 -0.0859,1.44335 v 0.002 c -0.0499,0.51127 -0.15126,0.99516 -0.30664,1.45508 -0.1528,0.4462 -0.37907,0.80726 -0.67968,1.08984 h -0.002 c -0.28455,0.27293 -0.66082,0.41211 -1.15625,0.41211 -0.49542,0 -0.87481,-0.13838 -1.16601,-0.41211 -0.29457,-0.28255 -0.51694,-0.64313 -0.66993,-1.08984 -0.15536,-0.45984 -0.26214,-0.94402 -0.31835,-1.45508 v -0.002 c -0.0503,-0.52269 -0.0762,-1.00449 -0.0762,-1.44335 0,-0.44528 0.0259,-0.92713 0.0762,-1.44336 v -0.002 c 0.0562,-0.51099 0.16315,-0.9921 0.31835,-1.44531 0.15309,-0.45312 0.3757,-0.81739 0.66993,-1.09961 0.2912,-0.27373 0.67059,-0.41211 1.16601,-0.41211 z m 21.90821,0 c 0.39781,0 0.69331,0.11939 0.92187,0.35938 l 0.004,0.002 c 0.24323,0.24324 0.42505,0.55914 0.54687,0.95508 l 0.002,0.004 c 0.13018,0.39678 0.21619,0.814 0.25977,1.25586 v 0.002 c 0.0395,0.39268 0.0518,0.74639 0.0508,1.08203 h -3.98633 c 0.0172,-0.28613 0.0177,-0.57495 0.0547,-0.85742 v -0.002 c 0.0749,-0.52336 0.20003,-0.99941 0.37305,-1.42578 0.17142,-0.42856 0.40131,-0.7614 0.6875,-1.00586 0.28616,-0.24528 0.64106,-0.36914 1.08594,-0.36914 z m -82.58204,0.008 c 0.84009,0.005 1.46331,0.15043 1.84766,0.42579 0.41052,0.28978 0.67155,0.652 0.79688,1.0996 v 0.002 c 0.13607,0.4639 0.20507,0.94489 0.20507,1.44726 v 4.93555 c 0,0.24575 0.0465,0.46738 0.14649,0.66016 l 0.004,0.006 c 0.0629,0.10902 0.22367,0.10832 0.3418,0.16015 -0.11353,0.0177 -0.20059,0.0977 -0.32226,0.0977 -0.28625,0 -0.55521,-0.0388 -0.8086,-0.11719 l -0.004,-0.002 c -0.23846,-0.0681 -0.4281,-0.2014 -0.58399,-0.41406 -0.14221,-0.20238 -0.22461,-0.51842 -0.22461,-0.95313 v -1.73242 c 0.004,-0.10126 0.0391,-0.17259 0.0391,-0.27735 l -0.0391,-0.0391 v -1.15234 h 0.75391 l 0.13281,-0.13281 v -0.0391 l -0.13281,-0.13086 h -0.75391 v -0.86914 c 0,-0.46329 -0.0349,-0.9292 -0.10547,-1.39843 v -0.002 c -0.066,-0.48629 -0.22605,-0.89905 -0.48242,-1.23047 -0.17426,-0.23077 -0.50931,-0.26681 -0.81055,-0.34375 z m -9.11718,0.0195 c 0.5357,0.0369 1.03149,0.10049 1.32031,0.28515 l 0.002,0.002 c 0.36991,0.23268 0.61318,0.54628 0.74414,0.95704 v 0.002 c 0.14057,0.41558 0.21289,0.8928 0.21289,1.43359 v 5.94532 h -1.45898 v -5.73633 c 0,-0.53708 -0.0234,-1.03592 -0.0684,-1.49805 -0.0457,-0.46958 -0.15401,-0.85628 -0.33203,-1.1582 -0.0855,-0.14987 -0.27957,-0.15106 -0.41992,-0.23242 z m 80.26953,0.0684 c 0.46533,0 0.88151,0.1549 1.26758,0.47461 0.24928,0.20254 0.41647,0.58711 0.60156,0.92969 0.19789,0.36649 0.33741,0.81274 0.43945,1.31445 0.10307,0.49389 0.23438,0.94868 0.23438,1.5879 0,0.63921 -0.13131,1.094 -0.23438,1.58789 -0.10131,0.49814 -0.24168,0.93986 -0.4375,1.30468 -0.18563,0.34227 -0.35282,0.726 -0.60351,0.92969 -0.38599,0.31361 -0.80168,0.46484 -1.26758,0.46484 -0.5019,0 -0.89672,-0.17169 -1.2168,-0.52734 -0.32429,-0.36032 -0.57104,-0.86391 -0.73242,-1.51562 -0.16194,-0.65401 -0.24414,-1.4018 -0.24414,-2.24414 0,-0.84235 0.0822,-1.59014 0.24414,-2.24415 0.16143,-0.65812 0.40837,-1.16533 0.73242,-1.52539 0.32034,-0.36186 0.71542,-0.5371 1.2168,-0.53711 z m -85.25,0.0566 h 1.43945 v 3.74414 c -0.0121,0.24416 -0.0371,0.51237 -0.0371,0.73437 l 0.0371,0.008 v 4.01368 h -1.43945 z m 40.70117,0 h 1.61328 l 3.31445,6.80078 -0.76171,1.875 z m -4.875,0.0957 c 0.34874,0.0918 0.79535,0.0901 1.05859,0.26367 v 0.002 c 0.55798,0.36177 0.95867,0.82993 1.20899,1.41602 v 0.002 c 0.24144,0.55187 0.34467,1.14457 0.36133,1.76758 h -1.73047 c 0.003,-0.35635 -0.013,-0.73412 -0.0547,-1.14844 -0.0452,-0.45839 -0.13571,-0.89568 -0.27148,-1.31054 l -0.002,-0.004 c -0.12314,-0.39819 -0.32208,-0.72068 -0.57031,-0.98828 z m 62.00781,0 c 0.34874,0.0918 0.79535,0.0901 1.0586,0.26367 v 0.002 c 0.55798,0.36177 0.95867,0.82993 1.20898,1.41602 v 0.002 c 0.24144,0.55187 0.34468,1.14457 0.36133,1.76758 h -1.73047 c 0.003,-0.35635 -0.013,-0.73412 -0.0547,-1.14844 -0.0452,-0.45839 -0.1357,-0.89568 -0.27148,-1.31054 l -0.002,-0.004 c -0.12314,-0.39819 -0.32209,-0.72068 -0.57031,-0.98828 z m -64.50586,0.0449 c -0.27293,0.26419 -0.51237,0.57584 -0.67578,0.98438 -0.182,0.44894 -0.31125,0.94435 -0.38867,1.48632 v 0.002 c -0.0386,0.29469 -0.0411,0.59606 -0.0586,0.89453 h -0.63868 l -0.13281,0.13281 v 0.0371 l 0.13281,0.13281 h 0.61914 c -0.005,0.14722 -0.0273,0.29134 -0.0273,0.43946 0,0.54546 0.0349,1.0914 0.10547,1.63671 v 0.002 c 0.0776,0.54315 0.21133,1.03846 0.40039,1.48828 v 0.004 c 0.17885,0.40539 0.43882,0.7213 0.74023,0.99024 -0.28351,-0.0841 -0.61197,-0.0697 -0.87109,-0.20899 -0.64509,-0.3569 -1.15689,-0.86193 -1.53906,-1.52148 -0.37995,-0.66256 -0.57227,-1.45707 -0.57227,-2.39062 0,-0.93487 0.18659,-1.72637 0.55469,-2.38282 0.37642,-0.66644 0.88045,-1.17121 1.51953,-1.52148 h 0.002 c 0.24435,-0.13627 0.56132,-0.12076 0.83008,-0.20508 z m 62.00782,0 c -0.27293,0.26419 -0.51237,0.57584 -0.67579,0.98438 -0.182,0.44894 -0.31124,0.94435 -0.38867,1.48632 v 0.002 c -0.0386,0.29469 -0.0411,0.59606 -0.0586,0.89453 h -0.63867 l -0.13282,0.13281 v 0.0371 l 0.13282,0.13281 h 0.61914 c -0.005,0.14722 -0.0274,0.29134 -0.0274,0.43946 0,0.54546 0.0349,1.0914 0.10547,1.63671 v 0.002 c 0.0776,0.54315 0.21134,1.03846 0.40039,1.48828 v 0.004 c 0.17885,0.40539 0.43882,0.7213 0.74024,0.99024 -0.28352,-0.0841 -0.61197,-0.0697 -0.8711,-0.20899 -0.64509,-0.3569 -1.15689,-0.86193 -1.53906,-1.52148 -0.37995,-0.66256 -0.57226,-1.45707 -0.57226,-2.39062 0,-0.93487 0.18658,-1.72637 0.55468,-2.38282 0.37643,-0.66644 0.88046,-1.17121 1.51953,-1.52148 h 0.002 c 0.24434,-0.13627 0.56132,-0.12076 0.83008,-0.20508 z m -19.1504,0.0508 c 0.26756,0.0947 0.60309,0.0761 0.8379,0.22656 0.6352,0.40703 1.11986,0.94315 1.45898,1.61524 0.34583,0.67313 0.51953,1.41029 0.51953,2.2168 0,0.8065 -0.1737,1.54365 -0.51953,2.21679 -0.33912,0.67208 -0.82378,1.20821 -1.45898,1.61524 -0.23365,0.14971 -0.56792,0.13011 -0.83399,0.22461 0.2828,-0.29738 0.52273,-0.64052 0.66992,-1.07032 0.16213,-0.47988 0.2686,-0.98549 0.32032,-1.51562 0.0576,-0.53102 0.0859,-1.02054 0.0859,-1.4707 0,-0.45644 -0.0283,-0.94589 -0.0859,-1.47071 -0.0517,-0.53018 -0.15805,-1.03203 -0.32032,-1.50586 -0.1478,-0.43752 -0.38878,-0.78304 -0.67383,-1.08203 z m -2.84179,0.004 c -0.278,0.29832 -0.51308,0.64277 -0.66016,1.07812 -0.16209,0.47332 -0.27194,0.97619 -0.33008,1.50586 -0.0512,0.52437 -0.0762,1.01489 -0.0762,1.47071 0,0.44954 0.025,0.94011 0.0762,1.4707 v 0.002 c 0.0581,0.52962 0.16811,1.03429 0.33008,1.51367 0.14706,0.42941 0.38267,0.77102 0.66016,1.06836 -0.26264,-0.094 -0.59326,-0.0747 -0.82422,-0.22265 -0.62908,-0.40706 -1.11334,-0.94248 -1.45899,-1.61524 -0.34583,-0.67314 -0.51953,-1.41029 -0.51953,-2.21679 0,-0.80651 0.1737,-1.54367 0.51953,-2.2168 0.34565,-0.67277 0.82991,-1.20818 1.45899,-1.61524 0.23096,-0.14799 0.56158,-0.12861 0.82422,-0.22265 z m -61.62696,0.54883 c 0.24434,0 0.45854,0.077 0.66016,0.23828 l 0.002,0.002 c 0.19662,0.14747 0.29102,0.344 0.29102,0.63672 0,0.35381 -0.10157,0.57871 -0.29883,0.72266 -0.20931,0.15698 -0.42299,0.23046 -0.6543,0.23046 -0.2643,0 -0.47515,-0.0764 -0.65429,-0.23242 l -0.002,-0.002 c -0.15775,-0.1434 -0.23365,-0.35627 -0.24023,-0.65234 l 0.0273,-0.0274 c 0,-0.11015 0.0727,-0.19439 0.10157,-0.29297 0.0441,-0.12609 0.0476,-0.28246 0.14843,-0.37109 h 0.002 c 0.1966,-0.17347 0.39626,-0.25195 0.61718,-0.25195 z m 12.36524,2.07421 4.83984,5.68165 h -1.81445 l -4.0293,-4.72266 v -0.16602 z m 27,0.42383 -0.13086,0.13086 v 0.0391 l 0.13086,0.13282 h 4.57226 l 0.13282,-0.13282 v -0.0391 l -0.13282,-0.13086 z m -36.89844,0.75977 h 1.04883 v 1.1914 c 0,0.80247 -0.0953,1.44435 -0.27734,1.92383 -0.18404,0.48464 -0.42582,0.82918 -0.7168,1.04492 -0.29714,0.21394 -0.61421,0.31836 -0.96875,0.31836 -0.29811,0 -0.51097,-0.0978 -0.67774,-0.30273 -0.17693,-0.22411 -0.30243,-0.49574 -0.375,-0.82227 -0.0744,-0.34109 -0.11132,-0.66574 -0.11132,-0.97265 0,-0.33241 0.064,-0.68477 0.19336,-1.06055 0.13228,-0.36544 0.34587,-0.67507 0.64648,-0.93359 0.29535,-0.25482 0.70153,-0.38672 1.23828,-0.38672 z m -1.47851,0.28515 c -0.28642,0.27067 -0.52303,0.57789 -0.65625,0.94727 v 0.002 c -0.13734,0.39893 -0.20703,0.7804 -0.20704,1.14649 0,0.32808 0.0392,0.67188 0.11719,1.02929 0.0798,0.35928 0.21976,0.67121 0.42383,0.92969 l 0.002,0.002 c 0.14547,0.1794 0.38194,0.2124 0.60157,0.27148 -0.10205,0.009 -0.14895,0.0742 -0.25977,0.0742 -0.80236,0 -1.42704,-0.2027 -1.89453,-0.59766 h -0.002 c -0.45958,-0.40084 -0.6875,-0.92994 -0.6875,-1.62304 0,-0.81405 0.32644,-1.40914 1.00586,-1.83985 0.35172,-0.22411 1.03371,-0.23016 1.55664,-0.3418 z m -24.25977,1.36524 c 0.0899,0.29957 0.15499,0.61646 0.28125,0.89062 v 0.002 c 0.14335,0.30718 0.36252,0.54739 0.56055,0.80664 h -0.004 l -0.83789,1.12304 z m 80.14648,0.13867 v 2.53711 l -0.85937,-0.9668 c 0.2951,-0.32625 0.57632,-0.66234 0.75,-1.05664 v -0.002 c 0.0723,-0.16191 0.0605,-0.34399 0.10937,-0.51172 z m -26.37695,5.91602 c 0.16845,0 0.32525,0.0418 0.47852,0.12695 0.1536,0.0915 0.27974,0.20922 0.38281,0.35742 0.10029,0.15044 0.15443,0.32092 0.16016,0.52149 h 0.004 c -0.0998,0.18317 -0.20014,0.39813 -0.29883,0.52148 -0.15044,0.18806 -0.37216,0.28516 -0.70703,0.28516 -0.13935,0 -0.2825,-0.0318 -0.43359,-0.0957 -0.14339,-0.0607 -0.26346,-0.15531 -0.36524,-0.29101 l -0.002,-0.002 c -0.0925,-0.1182 -0.14258,-0.27763 -0.14258,-0.49804 0,-0.18922 0.0378,-0.34805 0.11328,-0.48438 l 0.002,-0.002 c 0.084,-0.13904 0.19161,-0.24472 0.33008,-0.32227 0.13776,-0.0771 0.2946,-0.11718 0.47851,-0.11718 z"
           id="path50" />
      </g>
    </g>
  </g>
</svg>
